# Blender v2.63 (sub 0) OBJ File: ''
# www.blender.org
mtllib schieber1_verkleidung.mtl
o schieber1_verkleidung
v 0.101422 -0.061206 0.000000
v 0.090933 -0.080500 0.000000
v 0.074246 -0.097069 0.000000
v 0.052500 -0.109782 0.000000
v 0.027176 -0.117774 0.000000
v 0.000000 -0.117800 0.000000
v 0.052500 -0.109782 0.033000
v 0.027176 -0.117774 0.033000
v 0.000000 -0.117800 0.033000
v 0.090933 -0.080500 0.033000
v 0.074246 -0.097069 0.033000
v 0.030000 -0.041000 0.012000
v 0.030000 -0.041000 0.002000
v 0.030000 -0.041000 0.033000
v 0.070000 -0.041000 0.012000
v 0.105000 -0.041000 0.012000
v 0.105000 -0.041000 0.000000
v 0.070000 -0.041000 0.002000
v 0.105000 -0.041000 0.033000
v 0.101422 -0.061206 0.033000
v 0.070000 -0.041000 0.033000
v -0.101422 -0.061206 0.000000
v -0.090933 -0.080500 0.000000
v -0.074246 -0.097069 0.000000
v -0.052500 -0.109782 0.000000
v -0.027176 -0.117774 0.000000
v -0.052500 -0.109782 0.033000
v -0.027176 -0.117774 0.033000
v -0.090933 -0.080500 0.033000
v -0.074246 -0.097069 0.033000
v -0.030000 -0.041000 0.012000
v -0.030000 -0.041000 0.002000
v -0.030000 -0.041000 0.033000
v -0.070000 -0.041000 0.012000
v -0.105000 -0.041000 0.012000
v -0.105000 -0.041000 0.000000
v -0.070000 -0.041000 0.002000
v -0.105000 -0.041000 0.033000
v -0.101422 -0.061206 0.033000
v -0.070000 -0.041000 0.033000
v 0.101422 0.761206 0.000000
v 0.090933 0.780500 0.000000
v 0.074246 0.797069 0.000000
v 0.052500 0.809782 0.000000
v 0.027176 0.817774 0.000000
v 0.000000 0.817800 0.000000
v 0.052500 0.809782 0.033000
v 0.027176 0.817774 0.033000
v 0.000000 0.817800 0.033000
v 0.090933 0.780500 0.033000
v 0.074246 0.797069 0.033000
v 0.030000 0.741000 0.012000
v 0.030000 0.741000 0.002000
v 0.030000 0.741000 0.033000
v 0.070000 0.741000 0.012000
v 0.105000 0.741000 0.012000
v 0.105000 0.741000 0.000000
v 0.070000 0.741000 0.002000
v 0.105000 0.741000 0.033000
v 0.101422 0.761206 0.033000
v 0.070000 0.741000 0.033000
v -0.101422 0.761206 0.000000
v -0.090933 0.780500 0.000000
v -0.074246 0.797069 0.000000
v -0.052500 0.809782 0.000000
v -0.027176 0.817774 0.000000
v -0.052500 0.809782 0.033000
v -0.027176 0.817774 0.033000
v -0.090933 0.780500 0.033000
v -0.074246 0.797069 0.033000
v -0.030000 0.741000 0.012000
v -0.030000 0.741000 0.002000
v -0.030000 0.741000 0.033000
v -0.070000 0.741000 0.012000
v -0.105000 0.741000 0.012000
v -0.105000 0.741000 0.000000
v -0.070000 0.741000 0.002000
v -0.105000 0.741000 0.033000
v -0.101422 0.761206 0.033000
v -0.070000 0.741000 0.033000
v 0.000000 -0.041000 0.012000
v 0.000000 -0.041000 0.033000
v 0.000000 0.741000 0.012000
v 0.000000 0.741000 0.033000
vn 0.000000 -0.000000 1.000000
vn -0.000000 1.000000 0.000000
vn 0.000000 -1.000000 -0.000000
vn 0.984682 -0.174357 0.000000
vn 0.878559 -0.477634 0.000000
vn 0.704595 -0.709610 0.000000
vn 0.504706 -0.863291 0.000000
vn 0.300959 -0.953637 0.000000
vn 0.000954 -1.000000 0.000000
vn -0.984682 -0.174357 -0.000000
vn -0.878559 -0.477634 -0.000000
vn -0.704595 -0.709610 -0.000000
vn -0.504706 -0.863291 -0.000000
vn -0.300959 -0.953637 -0.000000
vn -0.000954 -1.000000 -0.000000
vn 1.000000 0.000000 0.000000
vn -1.000000 0.000000 0.000000
vn 0.984682 0.174357 0.000000
vn 0.878559 0.477634 0.000000
vn 0.704595 0.709610 0.000000
vn 0.504706 0.863291 0.000000
vn 0.300959 0.953637 0.000000
vn 0.000954 1.000000 0.000000
vn -0.984682 0.174357 0.000000
vn -0.878559 0.477634 0.000000
vn -0.704595 0.709610 0.000000
vn -0.504706 0.863291 0.000000
vn -0.300959 0.953637 0.000000
vn -0.000954 1.000000 0.000000
usemtl Default
s off
f 19//1 21//1 20//1
f 20//1 21//1 10//1
f 21//1 14//1 10//1
f 14//1 82//1 9//1
f 8//1 14//1 9//1
f 7//1 14//1 8//1
f 10//1 14//1 11//1
f 11//1 14//1 7//1
f 21//2 12//2 14//2
f 15//2 12//2 21//2
f 15//2 13//2 12//2
f 18//2 13//2 15//2
f 40//1 38//1 39//1
f 40//1 39//1 29//1
f 33//1 40//1 29//1
f 82//1 33//1 9//1
f 33//1 28//1 9//1
f 33//1 27//1 28//1
f 33//1 29//1 30//1
f 33//1 30//1 27//1
f 31//2 40//2 33//2
f 31//2 34//2 40//2
f 32//2 34//2 31//2
f 32//2 37//2 34//2
f 61//1 59//1 60//1
f 61//1 60//1 50//1
f 54//1 61//1 50//1
f 84//1 54//1 49//1
f 54//1 48//1 49//1
f 54//1 47//1 48//1
f 54//1 50//1 51//1
f 54//1 51//1 47//1
f 52//3 61//3 54//3
f 52//3 55//3 61//3
f 53//3 55//3 52//3
f 53//3 58//3 55//3
f 78//1 80//1 79//1
f 79//1 80//1 69//1
f 80//1 73//1 69//1
f 73//1 84//1 49//1
f 68//1 73//1 49//1
f 67//1 73//1 68//1
f 69//1 73//1 70//1
f 70//1 73//1 67//1
f 80//3 71//3 73//3
f 74//3 71//3 80//3
f 74//3 72//3 71//3
f 77//3 72//3 74//3
f 17//4 19//4 20//4
f 1//4 17//4 20//4
f 2//5 20//5 10//5
f 1//5 20//5 2//5
f 3//6 10//6 11//6
f 2//6 10//6 3//6
f 4//7 11//7 7//7
f 3//7 11//7 4//7
f 5//8 7//8 8//8
f 4//8 7//8 5//8
f 6//9 8//9 9//9
f 5//9 8//9 6//9
f 12//2 81//2 14//2
f 14//2 81//2 82//2
f 16//2 15//2 21//2
f 19//2 16//2 21//2
f 36//10 22//10 39//10
f 38//10 36//10 39//10
f 39//11 23//11 29//11
f 39//11 22//11 23//11
f 29//12 24//12 30//12
f 29//12 23//12 24//12
f 30//13 25//13 27//13
f 30//13 24//13 25//13
f 27//14 26//14 28//14
f 27//14 25//14 26//14
f 28//15 6//15 9//15
f 28//15 26//15 6//15
f 81//2 31//2 33//2
f 81//2 33//2 82//2
f 34//2 35//2 40//2
f 35//2 38//2 40//2
f 16//1 56//1 15//1
f 56//1 55//1 15//1
f 17//16 57//16 16//16
f 57//16 56//16 16//16
f 55//17 18//17 15//17
f 55//17 58//17 18//17
f 12//1 52//1 81//1
f 52//1 83//1 81//1
f 13//16 53//16 12//16
f 53//16 52//16 12//16
f 41//18 60//18 57//18
f 57//18 60//18 59//18
f 42//19 50//19 60//19
f 41//19 42//19 60//19
f 43//20 51//20 50//20
f 42//20 43//20 50//20
f 44//21 47//21 51//21
f 43//21 44//21 51//21
f 45//22 48//22 47//22
f 44//22 45//22 47//22
f 46//23 49//23 48//23
f 45//23 46//23 48//23
f 83//3 52//3 54//3
f 83//3 54//3 84//3
f 55//3 56//3 61//3
f 56//3 59//3 61//3
f 74//1 35//1 34//1
f 74//1 75//1 35//1
f 75//17 36//17 35//17
f 75//17 76//17 36//17
f 37//16 77//16 34//16
f 77//16 74//16 34//16
f 83//1 31//1 81//1
f 83//1 71//1 31//1
f 71//17 32//17 31//17
f 71//17 72//17 32//17
f 79//24 76//24 78//24
f 79//24 62//24 76//24
f 69//25 63//25 79//25
f 63//25 62//25 79//25
f 70//26 64//26 69//26
f 64//26 63//26 69//26
f 67//27 65//27 70//27
f 65//27 64//27 70//27
f 68//28 66//28 67//28
f 66//28 65//28 67//28
f 49//29 46//29 68//29
f 46//29 66//29 68//29
f 71//3 83//3 73//3
f 73//3 83//3 84//3
f 75//3 74//3 80//3
f 78//3 75//3 80//3
usemtl schiene
f 18//1 58//1 13//1
f 58//1 53//1 13//1
f 72//1 37//1 32//1
f 72//1 77//1 37//1
