# Blender v2.63 (sub 0) OBJ File: ''
# www.blender.org
mtllib schieber1.mtl
o schieber1
v -0.066240 -0.025056 -0.028814
v -0.066240 0.025200 -0.028814
v -0.033120 0.025200 -0.028814
v -0.033120 -0.025056 -0.028814
v 0.066240 -0.025056 -0.028814
v 0.066240 0.025200 -0.028814
v 0.033120 0.025200 -0.028814
v 0.033120 -0.024912 -0.028814
v -0.033120 0.025200 0.110517
v -0.066240 0.025200 0.110517
v -0.033120 -0.001440 0.096900
v -0.033120 0.016350 0.101667
v -0.033120 -0.025056 0.107493
v -0.033120 -0.019230 0.101667
v -0.066240 -0.025056 0.107493
v -0.066240 -0.001440 0.096900
v -0.066240 0.016350 0.101667
v -0.066240 -0.019230 0.101667
v 0.033120 0.025200 0.110517
v 0.066240 0.025200 0.110517
v 0.033120 -0.001440 0.096900
v 0.033120 0.016350 0.101667
v 0.033120 -0.024912 0.107350
v 0.033120 -0.019230 0.101667
v 0.066240 -0.025056 0.107493
v 0.066240 -0.001440 0.096900
v 0.066240 0.016350 0.101667
v 0.066240 -0.019230 0.101667
v -0.111312 0.016350 0.101667
v -0.111312 -0.001440 0.096900
v -0.111312 0.029373 0.114690
v -0.111312 0.034140 0.132480
v -0.111312 0.029373 0.150270
v -0.111312 0.016350 0.163293
v -0.111312 -0.001440 0.168060
v -0.111312 -0.019230 0.163293
v -0.111312 -0.032253 0.150270
v -0.111312 -0.037020 0.132480
v -0.111312 -0.032253 0.114690
v -0.111312 -0.019230 0.101667
v 0.111312 -0.001440 0.096900
v 0.111312 0.016350 0.101667
v 0.111312 0.029373 0.114690
v 0.111312 0.034140 0.132480
v 0.111312 0.029373 0.150270
v 0.111312 0.016350 0.163293
v 0.111312 -0.001440 0.168060
v 0.111312 -0.019230 0.163293
v 0.111312 -0.032253 0.150270
v 0.111312 -0.037020 0.132480
v 0.111312 -0.032253 0.114690
v 0.111312 -0.019230 0.101667
v -0.033120 -0.001440 0.096900
v -0.033120 0.016350 0.101667
v -0.066240 0.016350 0.101667
v -0.066240 -0.001440 0.096900
v 0.033120 -0.001440 0.096900
v 0.033120 0.016350 0.101667
v 0.066240 -0.001440 0.096900
v 0.066240 0.016350 0.101667
v -0.033120 0.025200 0.110517
v -0.066240 0.025200 0.110517
v 0.066240 0.025200 0.110517
v 0.033120 0.025200 0.110517
v -0.033120 -0.019230 0.101667
v -0.033120 -0.025056 0.107493
v -0.066240 -0.025056 0.107493
v -0.066240 -0.019230 0.101667
v 0.033120 -0.019230 0.101667
v 0.033120 -0.024912 0.107350
v 0.066240 -0.025056 0.107493
v 0.066240 -0.019230 0.101667
vn -1.000000 -0.000000 0.000000
vn 1.000000 0.000000 0.000000
vn 0.000000 0.965926 -0.258819
vn 0.000000 0.965926 0.258819
vn 0.000000 0.707107 0.707107
vn 0.000000 0.258818 0.965926
vn 0.000000 -0.258818 0.965926
vn 0.000000 -0.707107 0.707107
vn 0.000000 -0.965926 0.258819
vn 0.000000 -0.965926 -0.258819
vn 0.000000 0.258820 -0.965926
vn 0.000000 0.707106 -0.707107
vn 0.000000 0.707107 -0.707107
vn -0.000000 -0.707106 -0.707107
vn -0.000000 -0.707108 -0.707106
vn -0.000000 -0.707106 -0.707108
vn -0.000000 -0.707107 -0.707107
vn -0.000001 -0.707109 -0.707105
vn 0.000000 -0.707108 -0.707105
vn -0.000000 -0.258820 -0.965926
vn -0.000000 -0.000000 -1.000000
vn -0.000000 1.000000 0.000000
vn -0.000000 -1.000000 -0.000000
vn -0.004348 -0.999990 -0.000000
vn -0.004348 -0.999991 0.000000
usemtl griff1
s off
f 37//1 36//1 38//1
f 36//1 35//1 38//1
f 35//1 39//1 38//1
f 35//1 40//1 39//1
f 35//1 30//1 40//1
f 29//1 30//1 35//1
f 31//1 29//1 35//1
f 32//1 31//1 35//1
f 34//1 32//1 35//1
f 33//1 32//1 34//1
f 48//2 49//2 50//2
f 47//2 48//2 50//2
f 51//2 47//2 50//2
f 52//2 47//2 51//2
f 41//2 47//2 52//2
f 41//2 42//2 47//2
f 42//2 43//2 47//2
f 43//2 44//2 47//2
f 44//2 46//2 47//2
f 44//2 45//2 46//2
f 32//3 43//3 31//3
f 32//3 44//3 43//3
f 32//4 33//4 45//4
f 44//4 32//4 45//4
f 33//5 34//5 46//5
f 45//5 33//5 46//5
f 34//6 35//6 47//6
f 46//6 34//6 47//6
f 35//7 36//7 48//7
f 47//7 35//7 48//7
f 36//8 37//8 49//8
f 48//8 36//8 49//8
f 37//9 38//9 50//9
f 49//9 37//9 50//9
f 39//10 50//10 38//10
f 39//10 51//10 50//10
f 60//11 42//11 41//11
f 60//11 41//11 59//11
f 30//11 29//11 56//11
f 29//11 55//11 56//11
f 54//11 57//11 53//11
f 54//11 58//11 57//11
f 29//12 62//12 55//12
f 63//12 42//12 60//12
f 61//12 58//12 54//12
f 63//12 43//12 42//12
f 61//12 64//12 58//12
f 31//12 62//12 29//12
f 62//13 31//13 61//13
f 31//12 43//12 61//12
f 43//12 64//12 61//12
f 43//12 63//12 64//12
f 40//14 68//14 39//14
f 72//14 52//14 51//14
f 65//15 69//15 70//15
f 68//16 67//16 39//16
f 67//17 66//17 39//17
f 71//16 72//16 51//16
f 70//18 71//18 51//18
f 70//16 51//16 39//16
f 66//19 70//19 39//19
f 65//16 70//16 66//16
f 59//20 41//20 52//20
f 59//20 52//20 72//20
f 40//20 30//20 68//20
f 30//20 56//20 68//20
f 53//20 69//20 65//20
f 53//20 57//20 69//20
usemtl schieber
f 1//21 2//21 4//21
f 2//21 3//21 4//21
f 8//21 6//21 5//21
f 7//21 6//21 8//21
f 3//22 2//22 9//22
f 2//22 10//22 9//22
f 4//2 3//2 13//2
f 3//2 9//2 12//2
f 3//2 12//2 11//2
f 3//2 14//2 13//2
f 3//2 11//2 14//2
f 1//23 4//23 15//23
f 15//23 4//23 13//23
f 2//1 1//1 15//1
f 10//1 2//1 17//1
f 17//1 2//1 16//1
f 16//1 2//1 18//1
f 18//1 2//1 15//1
f 6//22 7//22 20//22
f 20//22 7//22 19//22
f 7//1 8//1 23//1
f 19//1 7//1 22//1
f 22//1 7//1 21//1
f 21//1 7//1 24//1
f 24//1 7//1 23//1
f 23//24 5//24 25//24
f 23//25 8//25 5//25
f 5//2 6//2 25//2
f 6//2 20//2 27//2
f 6//2 27//2 26//2
f 6//2 28//2 25//2
f 6//2 26//2 28//2
