# Blender v2.63 (sub 0) OBJ File: ''
# www.blender.org
mtllib anzeigerlicht.mtl
o anzeigerlicht
v -0.107400 -0.054600 -0.000000
v -0.107400 0.055900 -0.000000
v -0.058163 -0.016087 0.036724
v -0.063812 -0.012312 0.036724
v -0.067587 -0.006663 0.036724
v -0.068912 0.000000 0.036724
v -0.067587 0.006663 0.036724
v -0.063812 0.012312 0.036724
v -0.058163 0.016087 0.036724
v -0.063812 -0.029724 0.030242
v -0.074250 -0.022750 0.030242
v -0.081224 -0.012312 0.030242
v -0.083673 0.000000 0.030242
v -0.081224 0.012312 0.030242
v -0.074250 0.022750 0.030242
v -0.063812 0.029724 0.030242
v -0.067587 -0.038837 0.020542
v -0.081224 -0.029724 0.020542
v -0.090337 -0.016087 0.020542
v -0.093537 0.000000 0.020542
v -0.090337 0.016087 0.020542
v -0.081224 0.029724 0.020542
v -0.067587 0.038837 0.020542
v -0.088270 -0.036770 0.009100
v -0.088270 -0.036770 0.003900
v -0.107400 -0.054600 0.003900
v -0.083673 -0.032173 0.009100
v -0.071400 -0.048042 0.009100
v -0.071400 -0.048042 0.003900
v -0.068912 -0.042037 0.009100
v -0.099542 -0.019900 0.009100
v -0.103500 0.000000 0.009100
v -0.099542 -0.019900 0.003900
v -0.103500 0.000000 0.003900
v -0.093537 -0.017412 0.009100
v -0.097000 0.000000 0.009100
v -0.099542 0.019900 0.009100
v -0.099542 0.019900 0.003900
v -0.093537 0.017412 0.009100
v -0.088270 0.036770 0.009100
v -0.088270 0.036770 0.003900
v -0.107400 0.055900 0.003900
v -0.083673 0.032173 0.009100
v -0.071400 0.048042 0.009100
v -0.071400 0.048042 0.003900
v -0.068912 0.042037 0.009100
v 0.108400 -0.054600 -0.000000
v 0.108400 0.055900 -0.000000
v 0.059163 -0.016087 0.036724
v 0.064812 -0.012312 0.036724
v 0.068587 -0.006663 0.036724
v 0.069912 0.000000 0.036724
v 0.068587 0.006663 0.036724
v 0.064812 0.012312 0.036724
v 0.059163 0.016087 0.036724
v 0.064812 -0.029724 0.030242
v 0.075250 -0.022750 0.030242
v 0.082224 -0.012312 0.030242
v 0.084673 0.000000 0.030242
v 0.082224 0.012312 0.030242
v 0.075250 0.022750 0.030242
v 0.064812 0.029724 0.030242
v 0.068587 -0.038837 0.020542
v 0.082224 -0.029724 0.020542
v 0.091337 -0.016087 0.020542
v 0.094537 0.000000 0.020542
v 0.091337 0.016087 0.020542
v 0.082224 0.029724 0.020542
v 0.068587 0.038837 0.020542
v 0.089270 -0.036770 0.009100
v 0.089270 -0.036770 0.003900
v 0.108400 -0.054600 0.003900
v 0.084673 -0.032173 0.009100
v 0.072400 -0.048042 0.009100
v 0.072400 -0.048042 0.003900
v 0.069912 -0.042037 0.009100
v 0.100542 -0.019900 0.009100
v 0.104500 0.000000 0.009100
v 0.100542 -0.019900 0.003900
v 0.104500 0.000000 0.003900
v 0.094537 -0.017412 0.009100
v 0.098000 0.000000 0.009100
v 0.100542 0.019900 0.009100
v 0.100542 0.019900 0.003900
v 0.094537 0.017412 0.009100
v 0.089270 0.036770 0.009100
v 0.089270 0.036770 0.003900
v 0.108400 0.055900 0.003900
v 0.084673 0.032173 0.009100
v 0.072400 0.048042 0.009100
v 0.072400 0.048042 0.003900
v 0.069912 0.042037 0.009100
v -0.051500 -0.032173 0.030242
v -0.051500 -0.042037 0.020542
v -0.051500 -0.052000 0.009100
v -0.051500 -0.052000 0.003900
v -0.051500 -0.045500 0.009100
v -0.051500 -0.054600 0.003900
v -0.051500 -0.054600 -0.000000
v 0.052500 -0.032173 0.030242
v 0.052500 -0.042037 0.020542
v 0.052500 -0.052000 0.009100
v 0.052500 -0.052000 0.003900
v 0.052500 -0.045500 0.009100
v 0.052500 -0.054600 0.003900
v 0.052500 -0.054600 -0.000000
v -0.051500 0.000000 0.039000
v -0.051500 -0.017412 0.036724
v 0.052500 0.000000 0.039000
v 0.052500 -0.017412 0.036724
v -0.051500 0.017412 0.036724
v 0.052500 0.017412 0.036724
v -0.051500 0.032173 0.030242
v -0.051500 0.042037 0.020542
v -0.051500 0.052000 0.009100
v -0.051500 0.052000 0.003900
v -0.051500 0.045500 0.009100
v -0.051500 0.055900 0.003900
v -0.051500 0.055900 -0.000000
v 0.052500 0.032173 0.030242
v 0.052500 0.042037 0.020542
v 0.052500 0.052000 0.009100
v 0.052500 0.052000 0.003900
v 0.052500 0.045500 0.009100
v 0.052500 0.055900 0.003900
v 0.052500 0.055900 -0.000000
vn -0.000000 0.000000 1.000000
vn -0.195090 -0.980785 -0.000000
vn -0.555570 -0.831470 -0.000000
vn -0.831470 -0.555570 -0.000000
vn -0.980785 -0.195090 -0.000000
vn -0.980785 0.195090 0.000000
vn -0.831470 0.555570 0.000000
vn -0.555570 0.831470 0.000000
vn -0.195090 0.980785 0.000000
vn -1.000000 0.000000 0.000000
vn -0.000000 1.000000 0.000000
vn -0.000000 -1.000000 0.000000
vn 0.195090 -0.980785 0.000000
vn 0.555570 -0.831470 0.000000
vn 0.831470 -0.555570 0.000000
vn 0.980785 -0.195090 0.000000
vn 0.980785 0.195090 0.000000
vn 0.831470 0.555570 0.000000
vn 0.555570 0.831470 0.000000
vn 0.195090 0.980785 0.000000
vn 1.000000 -0.000000 0.000000
vn -0.025773 -0.129568 0.991236
vn -0.073394 -0.109843 0.991235
vn -0.109843 -0.073394 0.991236
vn -0.129568 -0.025773 0.991236
vn -0.129568 0.025773 0.991236
vn -0.109843 0.073394 0.991236
vn -0.073394 0.109843 0.991235
vn -0.025773 0.129568 0.991236
vn 0.025773 -0.129568 0.991236
vn 0.073395 -0.109843 0.991236
vn 0.109843 -0.073394 0.991235
vn 0.129568 -0.025773 0.991236
vn 0.129568 0.025773 0.991236
vn 0.109843 0.073394 0.991236
vn 0.073394 0.109843 0.991235
vn 0.025773 0.129568 0.991236
vn -0.079716 -0.400760 0.912708
vn -0.227012 -0.339748 0.912708
vn -0.339748 -0.227012 0.912708
vn -0.400760 -0.079716 0.912708
vn -0.400760 0.079716 0.912708
vn -0.339748 0.227012 0.912708
vn -0.227012 0.339748 0.912708
vn -0.079716 0.400760 0.912708
vn -0.138139 -0.694472 0.706135
vn -0.393387 -0.588745 0.706135
vn -0.588745 -0.393387 0.706135
vn -0.694472 -0.138139 0.706135
vn -0.694472 0.138139 0.706135
vn -0.588745 0.393387 0.706135
vn -0.393387 0.588745 0.706135
vn -0.138139 0.694472 0.706135
vn -0.532596 -0.797085 0.284599
vn -0.532595 -0.797085 0.284600
vn -0.797085 -0.532596 0.284599
vn -0.797085 -0.532596 0.284600
vn -0.940226 -0.187023 0.284600
vn -0.940226 0.187023 0.284600
vn -0.797085 0.532596 0.284600
vn -0.797085 0.532596 0.284599
vn -0.532596 0.797085 0.284599
vn -0.532595 0.797085 0.284600
vn -0.187023 0.940226 0.284600
vn -0.187023 -0.940226 0.284600
vn 0.079716 -0.400760 0.912708
vn 0.227012 -0.339748 0.912708
vn 0.339748 -0.227012 0.912708
vn 0.400760 -0.079716 0.912708
vn 0.400760 0.079716 0.912708
vn 0.339748 0.227012 0.912708
vn 0.227012 0.339748 0.912708
vn 0.079716 0.400760 0.912708
vn 0.138139 -0.694472 0.706135
vn 0.393387 -0.588745 0.706135
vn 0.588745 -0.393387 0.706135
vn 0.694472 -0.138139 0.706135
vn 0.694472 0.138139 0.706135
vn 0.588745 0.393387 0.706135
vn 0.393387 0.588745 0.706135
vn 0.138139 0.694472 0.706135
vn 0.532595 -0.797085 0.284600
vn 0.532596 -0.797085 0.284599
vn 0.797085 -0.532596 0.284599
vn 0.797085 -0.532596 0.284600
vn 0.940226 -0.187023 0.284600
vn 0.940226 0.187023 0.284600
vn 0.797085 0.532596 0.284600
vn 0.797085 0.532596 0.284599
vn 0.532595 0.797085 0.284600
vn 0.532596 0.797085 0.284599
vn 0.187023 0.940226 0.284600
vn 0.187023 -0.940226 0.284600
vn 0.000000 0.957114 0.289711
vn 0.000000 0.701194 0.712970
vn 0.000000 0.402040 0.915622
vn 0.000000 0.129611 0.991565
vn 0.000000 -0.129611 0.991565
vn 0.000000 -0.402040 0.915622
vn 0.000000 -0.701194 0.712970
vn 0.000000 -0.957114 0.289711
usemtl Default
s off
f 34//1 42//1 26//1
f 34//1 38//1 42//1
f 45//1 116//1 42//1
f 41//1 45//1 42//1
f 38//1 41//1 42//1
f 26//1 33//1 34//1
f 26//1 25//1 33//1
f 26//1 29//1 25//1
f 26//1 96//1 29//1
f 116//1 118//1 42//1
f 98//1 96//1 26//1
f 88//1 80//1 72//1
f 84//1 80//1 88//1
f 123//1 91//1 88//1
f 91//1 87//1 88//1
f 87//1 84//1 88//1
f 79//1 72//1 80//1
f 71//1 72//1 79//1
f 75//1 72//1 71//1
f 103//1 72//1 75//1
f 125//1 123//1 88//1
f 103//1 105//1 72//1
f 28//2 96//2 95//2
f 28//2 29//2 96//2
f 24//3 29//3 28//3
f 24//3 25//3 29//3
f 31//4 25//4 24//4
f 31//4 33//4 25//4
f 32//5 33//5 31//5
f 32//5 34//5 33//5
f 37//6 34//6 32//6
f 37//6 38//6 34//6
f 40//7 38//7 37//7
f 40//7 41//7 38//7
f 44//8 41//8 40//8
f 44//8 45//8 41//8
f 115//9 45//9 44//9
f 115//9 116//9 45//9
f 42//10 1//10 26//10
f 1//10 42//10 2//10
f 117//1 115//1 46//1
f 115//1 44//1 46//1
f 46//1 44//1 40//1
f 46//1 40//1 43//1
f 43//1 40//1 39//1
f 40//1 37//1 39//1
f 39//1 37//1 32//1
f 36//1 39//1 32//1
f 36//1 32//1 35//1
f 35//1 32//1 31//1
f 35//1 31//1 24//1
f 27//1 35//1 24//1
f 27//1 24//1 30//1
f 30//1 24//1 28//1
f 119//11 2//11 42//11
f 119//11 42//11 118//11
f 26//12 1//12 98//12
f 1//12 99//12 98//12
f 30//1 28//1 95//1
f 97//1 30//1 95//1
f 103//13 74//13 102//13
f 75//13 74//13 103//13
f 75//14 70//14 74//14
f 71//14 70//14 75//14
f 71//15 77//15 70//15
f 79//15 77//15 71//15
f 79//16 78//16 77//16
f 80//16 78//16 79//16
f 80//17 83//17 78//17
f 84//17 83//17 80//17
f 84//18 86//18 83//18
f 87//18 86//18 84//18
f 87//19 90//19 86//19
f 91//19 90//19 87//19
f 91//20 122//20 90//20
f 123//20 122//20 91//20
f 47//21 88//21 72//21
f 48//21 88//21 47//21
f 90//1 122//1 92//1
f 122//1 124//1 92//1
f 90//1 92//1 86//1
f 86//1 92//1 89//1
f 83//1 86//1 85//1
f 86//1 89//1 85//1
f 83//1 85//1 78//1
f 85//1 82//1 78//1
f 78//1 81//1 77//1
f 78//1 82//1 81//1
f 77//1 81//1 70//1
f 81//1 73//1 70//1
f 70//1 76//1 74//1
f 70//1 73//1 76//1
f 48//11 126//11 88//11
f 88//11 126//11 125//11
f 47//12 72//12 105//12
f 106//12 47//12 105//12
f 76//1 104//1 102//1
f 74//1 76//1 102//1
f 126//11 118//11 125//11
f 126//11 119//11 118//11
f 125//1 116//1 123//1
f 125//1 118//1 116//1
f 123//11 115//11 122//11
f 123//11 116//11 115//11
f 122//1 117//1 124//1
f 122//1 115//1 117//1
f 104//1 95//1 102//1
f 104//1 97//1 95//1
f 103//12 102//12 95//12
f 96//12 103//12 95//12
f 103//1 98//1 105//1
f 103//1 96//1 98//1
f 106//12 105//12 98//12
f 99//12 106//12 98//12
usemtl glas
f 107//22 3//22 108//22
f 107//23 4//23 3//23
f 107//24 5//24 4//24
f 107//25 6//25 5//25
f 7//26 6//26 107//26
f 8//27 7//27 107//27
f 9//28 8//28 107//28
f 111//29 9//29 107//29
f 49//30 109//30 110//30
f 50//31 109//31 49//31
f 51//32 109//32 50//32
f 52//33 109//33 51//33
f 52//34 53//34 109//34
f 53//35 54//35 109//35
f 54//36 55//36 109//36
f 55//37 112//37 109//37
f 3//38 10//38 93//38
f 108//38 3//38 93//38
f 4//39 11//39 10//39
f 3//39 4//39 10//39
f 5//40 12//40 11//40
f 4//40 5//40 11//40
f 5//41 13//41 12//41
f 6//41 13//41 5//41
f 7//42 13//42 6//42
f 7//42 14//42 13//42
f 15//43 14//43 7//43
f 8//43 15//43 7//43
f 16//44 15//44 8//44
f 9//44 16//44 8//44
f 113//45 16//45 9//45
f 111//45 113//45 9//45
f 93//46 17//46 94//46
f 93//46 10//46 17//46
f 11//47 18//47 17//47
f 10//47 11//47 17//47
f 12//48 19//48 18//48
f 11//48 12//48 18//48
f 12//49 20//49 19//49
f 13//49 20//49 12//49
f 14//50 20//50 13//50
f 14//50 21//50 20//50
f 22//51 21//51 14//51
f 15//51 22//51 14//51
f 23//52 22//52 15//52
f 16//52 23//52 15//52
f 113//53 23//53 16//53
f 114//53 23//53 113//53
f 18//54 27//54 30//54
f 17//55 18//55 30//55
f 18//56 35//56 27//56
f 19//57 35//57 18//57
f 19//58 36//58 35//58
f 20//58 36//58 19//58
f 21//59 36//59 20//59
f 21//59 39//59 36//59
f 22//60 39//60 21//60
f 22//61 43//61 39//61
f 46//62 43//62 22//62
f 23//63 46//63 22//63
f 117//64 46//64 23//64
f 114//64 117//64 23//64
f 17//65 30//65 97//65
f 94//65 17//65 97//65
f 49//66 110//66 100//66
f 56//66 49//66 100//66
f 50//67 49//67 56//67
f 57//67 50//67 56//67
f 51//68 50//68 57//68
f 58//68 51//68 57//68
f 59//69 51//69 58//69
f 59//69 52//69 51//69
f 59//70 53//70 52//70
f 60//70 53//70 59//70
f 61//71 54//71 53//71
f 60//71 61//71 53//71
f 62//72 55//72 54//72
f 61//72 62//72 54//72
f 120//73 112//73 55//73
f 62//73 120//73 55//73
f 63//74 100//74 101//74
f 56//74 100//74 63//74
f 57//75 56//75 63//75
f 64//75 57//75 63//75
f 58//76 57//76 64//76
f 65//76 58//76 64//76
f 66//77 58//77 65//77
f 66//77 59//77 58//77
f 66//78 60//78 59//78
f 67//78 60//78 66//78
f 68//79 61//79 60//79
f 67//79 68//79 60//79
f 69//80 62//80 61//80
f 68//80 69//80 61//80
f 69//81 120//81 62//81
f 69//81 121//81 120//81
f 64//82 63//82 76//82
f 73//83 64//83 76//83
f 81//84 64//84 73//84
f 81//85 65//85 64//85
f 82//86 65//86 81//86
f 82//86 66//86 65//86
f 82//87 67//87 66//87
f 85//87 67//87 82//87
f 85//88 68//88 67//88
f 89//89 68//89 85//89
f 92//90 69//90 68//90
f 89//91 92//91 68//91
f 124//92 121//92 69//92
f 92//92 124//92 69//92
f 63//93 101//93 104//93
f 76//93 63//93 104//93
f 124//94 114//94 121//94
f 124//94 117//94 114//94
f 121//95 113//95 120//95
f 121//95 114//95 113//95
f 120//96 111//96 112//96
f 120//96 113//96 111//96
f 112//97 107//97 109//97
f 112//97 111//97 107//97
f 109//98 108//98 110//98
f 109//98 107//98 108//98
f 110//99 93//99 100//99
f 110//99 108//99 93//99
f 100//100 94//100 101//100
f 100//100 93//100 94//100
f 101//101 97//101 104//101
f 101//101 94//101 97//101
