# Blender v2.65 (sub 0) OBJ File: ''
# www.blender.org
mtllib anzeigerstab_verkleidung.mtl
o anzeigerstab_verkleidung
v -0.018187 -0.014348 0.043800
v -0.010500 -0.014348 0.051487
v 0.000000 -0.014348 0.054300
v 0.010500 -0.014348 0.051487
v 0.018187 -0.014348 0.043800
v -0.031500 -0.000000 0.051487
v -0.018187 -0.000000 0.064800
v 0.000000 -0.000000 0.069673
v 0.018187 -0.000000 0.064800
v 0.031500 -0.000000 0.051487
v -0.036373 0.019600 0.054300
v -0.021000 0.019600 0.069673
v 0.000000 0.019600 0.075300
v 0.021000 0.019600 0.069673
v 0.036373 0.019600 0.054300
v 0.000000 -0.019600 0.033300
v -0.021000 -0.014348 0.033300
v -0.036373 -0.000000 0.033300
v -0.042000 0.019600 0.033300
v 0.021000 -0.014348 0.033300
v 0.036373 -0.000000 0.033300
v 0.042000 0.019600 0.033300
v -0.042000 0.019600 -0.000300
v -0.036373 -0.000000 -0.000300
v -0.021000 -0.014348 -0.000300
v 0.000000 -0.019600 -0.000300
v 0.021000 -0.014348 -0.000300
v 0.036373 -0.000000 -0.000300
v 0.042000 0.019600 -0.000300
v 0.000000 0.030800 0.075300
v -0.021000 0.030800 0.069673
v -0.036373 0.030800 0.054300
v 0.036373 0.030800 0.054300
v 0.021000 0.030800 0.069673
v 0.000000 -0.019600 0.003900
v -0.021000 -0.014348 0.009500
v -0.036373 -0.000000 0.023500
v 0.036373 -0.000000 0.023500
v 0.021000 -0.014348 0.009500
v -0.042000 0.019600 0.023500
v 0.042000 0.019600 0.023500
v -0.042000 0.030800 0.023500
v -0.042000 0.030800 0.033300
v -0.042000 0.030800 -0.000300
v -0.036373 0.030800 0.023500
v -0.021000 0.030800 0.009500
v 0.000000 0.030800 0.003900
v 0.042000 0.030800 0.023500
v 0.042000 0.030800 0.033300
v 0.042000 0.030800 -0.000300
v 0.021000 0.030800 0.009500
v 0.036373 0.030800 0.023500
v -0.018187 0.434348 0.043800
v -0.010500 0.434348 0.051487
v 0.000000 0.434348 0.054300
v 0.010500 0.434348 0.051487
v 0.018187 0.434348 0.043800
v -0.031500 0.420000 0.051487
v -0.018187 0.420000 0.064800
v 0.000000 0.420000 0.069673
v 0.018187 0.420000 0.064800
v 0.031500 0.420000 0.051487
v -0.036373 0.400400 0.054300
v -0.021000 0.400400 0.069673
v 0.000000 0.400400 0.075300
v 0.021000 0.400400 0.069673
v 0.036373 0.400400 0.054300
v 0.000000 0.439600 0.033300
v -0.021000 0.434348 0.033300
v -0.036373 0.420000 0.033300
v -0.042000 0.400400 0.033300
v 0.021000 0.434348 0.033300
v 0.036373 0.420000 0.033300
v 0.042000 0.400400 0.033300
v -0.042000 0.400400 -0.000300
v -0.036373 0.420000 -0.000300
v -0.021000 0.434348 -0.000300
v 0.000000 0.439600 -0.000300
v 0.021000 0.434348 -0.000300
v 0.036373 0.420000 -0.000300
v 0.042000 0.400400 -0.000300
v 0.000000 0.389200 0.075300
v -0.021000 0.389200 0.069673
v -0.036373 0.389200 0.054300
v 0.036373 0.389200 0.054300
v 0.021000 0.389200 0.069673
v 0.000000 0.439600 0.003900
v -0.021000 0.434348 0.009500
v -0.036373 0.420000 0.023500
v 0.036373 0.420000 0.023500
v 0.021000 0.434348 0.009500
v -0.042000 0.400400 0.023500
v 0.042000 0.400400 0.023500
v -0.042000 0.389200 0.023500
v -0.042000 0.389200 0.033300
v -0.042000 0.389200 -0.000300
v -0.036373 0.389200 0.023500
v -0.021000 0.389200 0.009500
v 0.000000 0.389200 0.003900
v 0.042000 0.389200 0.023500
v 0.042000 0.389200 0.033300
v 0.042000 0.389200 -0.000300
v 0.021000 0.389200 0.009500
v 0.036373 0.389200 0.023500
v -0.042000 0.030800 0.023500
v -0.042000 0.030800 -0.000300
v -0.036373 0.030800 0.023500
v -0.021000 0.030800 0.009500
v 0.000000 0.030800 0.003900
v 0.042000 0.030800 0.023500
v 0.042000 0.030800 -0.000300
v 0.021000 0.030800 0.009500
v 0.036373 0.030800 0.023500
v -0.042000 0.389200 0.023500
v -0.042000 0.389200 -0.000300
v -0.036373 0.389200 0.023500
v -0.021000 0.389200 0.009500
v 0.000000 0.389200 0.003900
v 0.042000 0.389200 0.023500
v 0.042000 0.389200 -0.000300
v 0.021000 0.389200 0.009500
v 0.036373 0.389200 0.023500
vn -0.242103 -0.968079 0.064871
vn -0.177232 -0.968080 0.177232
vn -0.064871 -0.968079 0.242103
vn 0.064871 -0.968079 0.242103
vn 0.177232 -0.968080 0.177232
vn 0.242103 -0.968079 0.064871
vn 0.000000 1.000000 0.000000
vn -0.242104 0.968079 0.064872
vn -0.177232 0.968079 0.177232
vn -0.064872 0.968079 0.242104
vn 0.064872 0.968079 0.242104
vn 0.177232 0.968079 0.177232
vn 0.242104 0.968079 0.064872
vn -0.000000 -1.000000 -0.000000
vn -0.671193 -0.719135 0.179846
vn -0.671193 -0.719135 0.179845
vn -0.491347 -0.719135 0.491347
vn -0.179846 -0.719135 0.671193
vn 0.179846 -0.719135 0.671193
vn 0.491347 -0.719135 0.491347
vn 0.671193 -0.719135 0.179846
vn 0.671193 -0.719135 0.179845
vn -0.930800 -0.267222 0.249407
vn -0.681393 -0.267222 0.681393
vn -0.249407 -0.267222 0.930800
vn 0.249407 -0.267222 0.930800
vn 0.681393 -0.267222 0.681393
vn 0.930800 -0.267222 0.249407
vn 0.258819 -0.000000 0.965926
vn -0.258819 0.000000 0.965926
vn -0.707107 0.000000 0.707107
vn -0.965926 0.000000 0.258819
vn 0.965926 -0.000000 0.258819
vn 0.707107 -0.000000 0.707107
vn -1.000000 0.000000 0.000000
vn 1.000000 -0.000000 0.000000
vn 0.961174 -0.275942 0.000000
vn 0.682318 -0.731055 0.000000
vn 0.242614 -0.970123 0.000000
vn -0.242614 -0.970123 -0.000000
vn -0.682318 -0.731055 -0.000000
vn -0.961174 -0.275942 -0.000000
vn -0.671193 0.719135 0.179846
vn -0.491348 0.719135 0.491347
vn -0.491347 0.719135 0.491347
vn -0.179846 0.719135 0.671193
vn 0.179846 0.719135 0.671193
vn 0.491348 0.719135 0.491347
vn 0.491347 0.719135 0.491347
vn 0.671193 0.719135 0.179846
vn -0.930800 0.267222 0.249407
vn -0.681393 0.267222 0.681393
vn -0.249407 0.267222 0.930800
vn 0.249407 0.267222 0.930800
vn 0.681393 0.267222 0.681393
vn 0.930800 0.267222 0.249407
vn 0.961174 0.275942 0.000000
vn 0.682319 0.731055 0.000000
vn 0.242615 0.970123 0.000000
vn -0.242615 0.970123 0.000000
vn -0.682319 0.731055 0.000000
vn -0.961174 0.275942 0.000000
vn 0.000000 -0.000000 1.000000
vn 0.673317 0.000000 0.739354
vn 0.257663 0.000000 0.966235
vn -0.257663 0.000000 0.966235
vn -0.673317 0.000000 0.739354
usemtl halterung
s off
f 1//1 17//1 16//1
f 2//2 1//2 16//2
f 3//3 2//3 16//3
f 4//4 3//4 16//4
f 5//5 4//5 16//5
f 20//6 5//6 16//6
f 47//7 31//7 30//7
f 46//7 31//7 47//7
f 45//7 31//7 46//7
f 32//7 31//7 45//7
f 42//7 43//7 45//7
f 43//7 32//7 45//7
f 34//7 47//7 30//7
f 34//7 51//7 47//7
f 34//7 52//7 51//7
f 49//7 48//7 52//7
f 52//7 34//7 33//7
f 33//7 49//7 52//7
f 69//8 53//8 68//8
f 53//9 54//9 68//9
f 54//10 55//10 68//10
f 55//11 56//11 68//11
f 56//12 57//12 68//12
f 57//13 72//13 68//13
f 83//14 99//14 82//14
f 83//14 98//14 99//14
f 83//14 97//14 98//14
f 83//14 84//14 97//14
f 95//14 94//14 97//14
f 84//14 95//14 97//14
f 99//14 86//14 82//14
f 103//14 86//14 99//14
f 104//14 86//14 103//14
f 100//14 101//14 104//14
f 86//14 104//14 85//14
f 101//14 85//14 104//14
f 1//15 6//15 17//15
f 6//16 18//16 17//16
f 7//17 1//17 2//17
f 1//17 7//17 6//17
f 7//18 2//18 3//18
f 8//18 7//18 3//18
f 9//19 8//19 3//19
f 4//19 9//19 3//19
f 5//20 9//20 4//20
f 10//20 9//20 5//20
f 20//21 10//21 5//21
f 21//22 10//22 20//22
f 19//23 18//23 6//23
f 11//23 19//23 6//23
f 12//24 6//24 7//24
f 12//24 11//24 6//24
f 13//25 7//25 8//25
f 13//25 12//25 7//25
f 9//26 13//26 8//26
f 14//26 13//26 9//26
f 10//27 14//27 9//27
f 15//27 14//27 10//27
f 22//28 15//28 10//28
f 21//28 22//28 10//28
f 14//29 30//29 13//29
f 34//29 30//29 14//29
f 30//30 12//30 13//30
f 30//30 31//30 12//30
f 31//31 11//31 12//31
f 31//31 32//31 11//31
f 32//32 19//32 11//32
f 32//32 43//32 19//32
f 22//33 33//33 15//33
f 49//33 33//33 22//33
f 15//34 34//34 14//34
f 33//34 34//34 15//34
f 43//35 40//35 19//35
f 43//35 42//35 40//35
f 41//36 49//36 22//36
f 48//36 49//36 41//36
f 38//37 22//37 21//37
f 41//37 22//37 38//37
f 38//38 21//38 20//38
f 39//38 38//38 20//38
f 39//39 20//39 16//39
f 35//39 39//39 16//39
f 36//40 35//40 16//40
f 17//40 36//40 16//40
f 37//41 36//41 17//41
f 18//41 37//41 17//41
f 19//42 37//42 18//42
f 19//42 40//42 37//42
f 42//35 23//35 40//35
f 42//35 44//35 23//35
f 40//42 24//42 37//42
f 40//42 23//42 24//42
f 24//41 25//41 36//41
f 37//41 24//41 36//41
f 25//40 26//40 35//40
f 36//40 25//40 35//40
f 27//39 39//39 35//39
f 26//39 27//39 35//39
f 28//38 38//38 39//38
f 27//38 28//38 39//38
f 28//37 41//37 38//37
f 29//37 41//37 28//37
f 29//36 48//36 41//36
f 50//36 48//36 29//36
f 53//43 69//43 58//43
f 69//43 70//43 58//43
f 54//44 53//44 59//44
f 53//45 58//45 59//45
f 55//46 59//46 60//46
f 55//46 54//46 59//46
f 56//47 55//47 61//47
f 61//47 55//47 60//47
f 57//48 56//48 61//48
f 62//49 57//49 61//49
f 72//50 57//50 62//50
f 73//50 72//50 62//50
f 58//51 71//51 63//51
f 58//51 70//51 71//51
f 59//52 58//52 64//52
f 58//52 63//52 64//52
f 60//53 59//53 65//53
f 59//53 64//53 65//53
f 61//54 60//54 65//54
f 66//54 61//54 65//54
f 62//55 61//55 66//55
f 67//55 62//55 66//55
f 73//56 62//56 74//56
f 74//56 62//56 67//56
f 66//29 65//29 82//29
f 86//29 66//29 82//29
f 65//30 64//30 82//30
f 64//30 83//30 82//30
f 64//31 63//31 83//31
f 63//31 84//31 83//31
f 63//32 71//32 84//32
f 71//32 95//32 84//32
f 74//33 67//33 85//33
f 101//33 74//33 85//33
f 67//34 66//34 86//34
f 85//34 67//34 86//34
f 71//35 92//35 95//35
f 92//35 94//35 95//35
f 93//36 74//36 101//36
f 100//36 93//36 101//36
f 90//57 73//57 74//57
f 93//57 90//57 74//57
f 91//58 72//58 90//58
f 90//58 72//58 73//58
f 87//59 68//59 91//59
f 91//59 68//59 72//59
f 68//60 88//60 69//60
f 68//60 87//60 88//60
f 69//61 89//61 70//61
f 69//61 88//61 89//61
f 70//62 89//62 71//62
f 89//62 92//62 71//62
f 92//35 75//35 94//35
f 75//35 96//35 94//35
f 89//62 76//62 92//62
f 76//62 75//62 92//62
f 88//61 76//61 89//61
f 88//61 77//61 76//61
f 87//60 77//60 88//60
f 87//60 78//60 77//60
f 78//59 87//59 79//59
f 79//59 87//59 91//59
f 79//58 91//58 80//58
f 80//58 91//58 90//58
f 80//57 90//57 93//57
f 81//57 80//57 93//57
f 81//36 93//36 100//36
f 102//36 81//36 100//36
f 116//63 105//63 107//63
f 116//63 114//63 105//63
f 108//64 117//64 107//64
f 117//64 116//64 107//64
f 109//65 118//65 108//65
f 118//65 117//65 108//65
f 121//66 109//66 112//66
f 121//66 118//66 109//66
f 122//67 112//67 113//67
f 122//67 121//67 112//67
f 110//63 119//63 113//63
f 119//63 122//63 113//63
f 111//36 120//36 110//36
f 120//36 119//36 110//36
f 114//35 106//35 105//35
f 114//35 115//35 106//35
