# Blender v2.65 (sub 0) OBJ File: ''
# www.blender.org
mtllib schalter2.mtl
o schalter2
v -0.142592 -0.080000 0.084305
v -0.004689 -0.080000 -0.000305
v -0.151970 -0.080000 0.062212
v -0.142592 0.080000 0.084305
v -0.004689 0.080000 -0.000305
v -0.151970 0.080000 0.062212
v 0.142592 -0.080000 0.084305
v 0.004689 -0.080000 -0.000305
v 0.151970 -0.080000 0.062212
v 0.142592 0.080000 0.084305
v 0.004689 0.080000 -0.000305
v 0.151970 0.080000 0.062212
v 0.000000 -0.080000 0.023778
v 0.000000 -0.080000 0.010742
v 0.000000 0.080000 0.023778
v 0.000000 0.080000 0.010742
v -0.004689 -0.080000 -0.000305
v 0.004689 -0.080000 -0.000305
v 0.000000 -0.080000 0.010742
v -0.004689 0.080000 -0.000305
v 0.004689 0.080000 -0.000305
v 0.000000 0.080000 0.010742
v -0.004689 -0.080000 -0.000305
v 0.004689 -0.080000 -0.000305
v -0.004689 0.080000 -0.000305
v 0.004689 0.080000 -0.000305
vn -0.000000 -1.000000 -0.000000
vn -0.000000 1.000000 0.000000
vn 0.000000 0.000000 -1.000000
vn -0.390731 0.000000 -0.920505
vn -0.920505 0.000000 0.390731
vn 0.390731 0.000000 0.920505
vn 0.390731 0.000000 -0.920505
vn 0.920505 -0.000000 0.390731
vn -0.390731 0.000000 0.920505
usemtl schalter-hinten
s off
f 17//1 18//1 19//1
f 21//2 20//2 22//2
f 25//3 26//3 23//3
f 26//3 24//3 23//3
usemtl schalter-links
f 6//4 2//4 3//4
f 6//4 5//4 2//4
f 1//5 4//5 3//5
f 4//5 6//5 3//5
f 1//1 3//1 13//1
f 2//1 13//1 3//1
f 2//1 14//1 13//1
f 1//6 15//6 4//6
f 1//6 13//6 15//6
f 15//2 6//2 4//2
f 15//2 5//2 6//2
f 16//2 5//2 15//2
usemtl schalter-rechts
f 8//7 12//7 9//7
f 11//7 12//7 8//7
f 9//8 10//8 7//8
f 12//8 10//8 9//8
f 13//1 9//1 7//1
f 13//1 8//1 9//1
f 14//1 8//1 13//1
f 10//9 13//9 7//9
f 10//9 15//9 13//9
f 12//2 15//2 10//2
f 11//2 15//2 12//2
f 11//2 16//2 15//2
