# Blender v2.65 (sub 0) OBJ File: ''
# www.blender.org
mtllib anzeigerpfeil_verkleidung.mtl
o anzeigerpfeil_verkleidung
v -0.200500 -0.090000 -0.000000
v -0.200500 0.200000 -0.000000
v 0.199500 0.200000 -0.000000
v 0.199500 -0.090000 -0.000000
v -0.000500 0.050000 0.013000
v 0.018634 0.046194 0.013000
v 0.034855 0.035355 0.013000
v 0.045694 0.019134 0.013000
v -0.046694 0.019134 0.013000
v -0.035855 0.035355 0.013000
v -0.019634 0.046194 0.013000
v -0.000500 0.050000 0.009000
v 0.018634 0.046194 0.009000
v 0.034855 0.035355 0.009000
v 0.045694 0.019134 0.009000
v -0.046694 0.019134 0.009000
v -0.035855 0.035355 0.009000
v -0.019634 0.046194 0.009000
v -0.200300 -0.090000 0.013000
v -0.200300 0.000000 0.013000
v 0.199700 0.000000 0.013000
v 0.199700 -0.090000 0.013000
v -0.200500 -0.090000 0.005960
v -0.200500 0.000000 0.006000
v -0.050500 0.000000 0.013000
v -0.050500 0.000000 0.009000
v 0.049500 0.000000 0.013000
v 0.049500 0.000000 0.009000
v 0.199500 -0.090000 0.005960
v 0.199500 0.000000 0.006000
v -0.200500 0.200000 0.005960
v 0.199500 0.200000 0.005960
v -0.170500 0.000000 0.006000
v -0.167233 0.034141 0.006000
v -0.157560 0.066970 0.006000
v -0.141850 0.097225 0.006000
v -0.120708 0.123744 0.006000
v -0.094947 0.145507 0.006000
v -0.065556 0.161679 0.006000
v -0.033665 0.171637 0.006000
v -0.000500 0.000000 0.006000
v 0.169500 0.000000 0.006000
v 0.166233 0.034141 0.006000
v 0.156560 0.066970 0.006000
v 0.140850 0.097225 0.006000
v 0.119708 0.123744 0.006000
v 0.093947 0.145507 0.006000
v 0.064556 0.161679 0.006000
v 0.032665 0.171637 0.006000
v -0.114959 0.060310 0.006000
v -0.110243 0.069134 0.006000
v -0.005500 0.129508 0.006000
v -0.069634 0.109743 0.006000
v -0.060810 0.114459 0.006000
v 0.109243 0.069134 0.006000
v 0.113959 0.060310 0.006000
v 0.059810 0.114459 0.006000
v 0.068634 0.109743 0.006000
v 0.004500 0.129508 0.006000
v -0.150395 0.080768 0.006000
v 0.149395 0.080768 0.006000
v -0.145782 0.089652 0.006000
v -0.005500 0.174493 0.006000
v -0.091407 0.147455 0.006000
v -0.082644 0.152277 0.006000
v 0.144782 0.089652 0.006000
v 0.081644 0.152277 0.006000
v 0.090407 0.147455 0.006000
v 0.004500 0.174493 0.006000
v -0.200500 0.000000 0.006000
v 0.199500 0.000000 0.006000
v -0.200500 0.200000 0.005960
v 0.199500 0.200000 0.005960
vn 0.000000 -0.000000 1.000000
vn -0.000205 0.000200 1.000000
vn -0.000487 0.000143 1.000000
vn -0.000357 0.000185 1.000000
vn -0.000285 0.000227 1.000000
vn -0.000235 0.000278 1.000000
vn -0.000196 0.000355 1.000000
vn -0.000155 0.000497 1.000000
vn -0.000090 0.000883 1.000000
vn 0.000205 0.000200 1.000000
vn 0.000487 0.000143 1.000000
vn 0.000357 0.000185 1.000000
vn 0.000285 0.000227 1.000000
vn 0.000235 0.000278 1.000000
vn 0.000196 0.000355 1.000000
vn 0.000155 0.000497 1.000000
vn 0.000090 0.000883 1.000000
vn -1.000000 0.000000 0.000000
vn 0.000000 1.000000 0.000000
vn 1.000000 -0.000000 0.000000
vn -0.000000 -1.000000 0.000000
vn 0.195090 0.980785 0.000000
vn 0.555570 0.831470 0.000000
vn 0.831470 0.555570 0.000000
vn -0.831470 0.555570 0.000000
vn -0.555570 0.831470 0.000000
vn -0.195090 0.980785 0.000000
vn 0.980785 0.195090 0.000000
vn -0.980785 0.195090 0.000000
vn -0.999597 -0.000013 0.028398
vn -0.999592 0.000000 0.028560
vn 0.999592 0.000000 -0.028560
vn 0.999597 0.000013 -0.028398
vn 0.000000 0.001568 0.999999
usemtl black.001
s off
f 62//1 60//1 51//1
f 51//1 60//1 50//1
f 54//1 65//1 53//1
f 65//1 64//1 53//1
f 69//1 63//1 59//1
f 63//1 52//1 59//1
f 68//1 67//1 58//1
f 67//1 57//1 58//1
f 61//1 66//1 55//1
f 61//1 55//1 56//1
usemtl blatt.003
f 52//1 41//1 59//1
f 63//1 40//1 52//1
f 40//1 39//1 52//1
f 39//1 65//1 54//1
f 52//1 39//1 54//1
f 52//1 54//1 41//1
f 54//1 33//1 41//1
f 60//1 35//1 50//1
f 50//1 35//1 34//1
f 50//1 34//1 33//1
f 36//1 62//1 51//1
f 37//1 36//1 51//1
f 38//1 37//1 51//1
f 64//1 38//1 53//1
f 53//1 38//1 51//1
f 53//1 51//1 50//1
f 54//1 50//1 33//1
f 54//1 53//1 50//1
f 49//1 69//1 59//1
f 48//1 49//1 59//1
f 67//1 48//1 57//1
f 48//1 59//1 57//1
f 57//1 59//1 41//1
f 42//1 57//1 41//1
f 44//1 61//1 56//1
f 44//1 56//1 43//1
f 43//1 56//1 42//1
f 66//1 45//1 55//1
f 45//1 46//1 55//1
f 46//1 47//1 55//1
f 47//1 68//1 58//1
f 47//1 58//1 55//1
f 58//1 57//1 55//1
f 55//1 57//1 56//1
f 56//1 57//1 42//1
usemtl rahmen.001
f 34//1 70//1 33//1
f 34//2 72//2 70//2
f 35//3 72//3 34//3
f 60//4 72//4 35//4
f 62//4 72//4 60//4
f 36//4 72//4 62//4
f 37//5 72//5 36//5
f 38//6 72//6 37//6
f 64//7 72//7 38//7
f 65//7 72//7 64//7
f 39//7 72//7 65//7
f 40//8 72//8 39//8
f 63//9 72//9 40//9
f 43//1 42//1 71//1
f 43//10 71//10 73//10
f 73//11 44//11 43//11
f 73//12 61//12 44//12
f 73//12 66//12 61//12
f 73//12 45//12 66//12
f 73//13 46//13 45//13
f 73//14 47//14 46//14
f 73//15 68//15 47//15
f 73//15 67//15 68//15
f 73//15 48//15 67//15
f 73//16 49//16 48//16
f 73//17 69//17 49//17
f 31//18 1//18 23//18
f 1//18 31//18 2//18
f 2//19 31//19 32//19
f 3//19 2//19 32//19
f 4//20 32//20 29//20
f 3//20 32//20 4//20
f 23//21 1//21 29//21
f 1//21 4//21 29//21
f 8//1 25//1 27//1
f 8//1 9//1 25//1
f 7//1 9//1 8//1
f 7//1 6//1 9//1
f 6//1 10//1 9//1
f 5//1 11//1 6//1
f 6//1 11//1 10//1
f 13//22 5//22 6//22
f 12//22 5//22 13//22
f 14//23 6//23 7//23
f 13//23 6//23 14//23
f 15//24 7//24 8//24
f 14//24 7//24 15//24
f 10//25 16//25 9//25
f 10//25 17//25 16//25
f 11//26 17//26 10//26
f 11//26 18//26 17//26
f 5//27 18//27 11//27
f 5//27 12//27 18//27
f 15//28 8//28 28//28
f 28//28 8//28 27//28
f 9//29 16//29 26//29
f 9//29 26//29 25//29
f 20//1 19//1 22//1
f 21//1 20//1 22//1
f 24//30 23//30 19//30
f 20//31 24//31 19//31
f 30//32 21//32 22//32
f 29//33 30//33 22//33
f 19//21 29//21 22//21
f 23//21 29//21 19//21
f 24//19 20//19 25//19
f 21//19 30//19 27//19
f 30//19 28//19 27//19
f 30//19 24//19 28//19
f 24//19 26//19 28//19
f 26//19 24//19 25//19
f 72//34 63//34 69//34
f 73//34 72//34 69//34
