# Blender v2.65 (sub 0) OBJ File: ''
# www.blender.org
mtllib anzeigerpfeil.mtl
o anzeigerpfeil_anzeigerpfeil.002
v -0.000330 -0.015571 0.008500
v -0.109317 0.060592 0.008500
v -0.110368 0.063837 0.008500
v -0.107117 0.064403 0.008500
v 0.013420 0.008244 0.008500
v 0.006545 -0.003663 0.008500
v -0.000330 -0.015571 0.006500
v -0.109317 0.060592 0.006500
v -0.110368 0.063837 0.006500
v -0.107117 0.064403 0.006500
v 0.013420 0.008244 0.006500
v 0.006545 -0.003663 0.006500
vn 0.000000 0.000000 1.000000
vn -0.572819 -0.819682 0.000000
vn -0.951277 -0.308338 -0.000000
vn -0.171489 0.985186 0.000000
vn 0.422315 0.906449 0.000000
vn 0.866025 -0.500000 0.000000
vn -0.000000 -0.000000 -1.000000
usemtl pfeil.002
s off
f 2//1 1//1 6//1
f 3//1 2//1 6//1
f 5//1 4//1 6//1
f 4//1 3//1 6//1
f 1//2 2//2 7//2
f 2//2 8//2 7//2
f 3//3 8//3 2//3
f 3//3 9//3 8//3
f 9//4 3//4 4//4
f 10//4 9//4 4//4
f 11//5 4//5 5//5
f 10//5 4//5 11//5
f 12//6 5//6 6//6
f 12//6 11//6 5//6
f 1//6 7//6 6//6
f 7//6 12//6 6//6
f 7//7 8//7 12//7
f 8//7 9//7 12//7
f 9//7 10//7 12//7
f 10//7 11//7 12//7
