# Blender v2.63 (sub 0) OBJ File: ''
# www.blender.org
mtllib anzeigerpfeil_verkleidung.mtl
o anzeigerpfeil_verkleidung_anzeigerpfeil_verkleidung.001
v -0.000625 0.062750 0.036250
v 0.023293 0.057992 0.036250
v 0.043569 0.044444 0.036250
v 0.057117 0.024168 0.036250
v -0.058367 0.024168 0.036250
v -0.044819 0.044444 0.036250
v -0.024543 0.057992 0.036250
v -0.000625 0.062750 0.031250
v 0.023293 0.057992 0.031250
v 0.043569 0.044444 0.031250
v 0.057117 0.024168 0.031250
v -0.058367 0.024168 0.031250
v -0.044819 0.044444 0.031250
v -0.024543 0.057992 0.031250
v -0.250575 0.000250 0.036250
v 0.249625 0.000250 0.036250
v -0.063125 0.000250 0.036250
v -0.063125 0.000250 0.031250
v 0.061875 0.000250 0.036250
v 0.061875 0.000250 0.031250
v -0.213125 0.000250 0.027500
v -0.209042 0.042926 0.027500
v -0.196949 0.083962 0.027500
v -0.177312 0.121781 0.027500
v -0.150885 0.154930 0.027500
v -0.118684 0.182134 0.027500
v -0.081945 0.202349 0.027500
v -0.042082 0.214797 0.027500
v -0.000625 0.000250 0.027500
v 0.211875 0.000250 0.027500
v 0.207792 0.042926 0.027500
v 0.195699 0.083962 0.027500
v 0.176062 0.121781 0.027500
v 0.149635 0.154930 0.027500
v 0.117434 0.182134 0.027500
v 0.080695 0.202349 0.027500
v 0.040832 0.214797 0.027500
v -0.143699 0.075637 0.027500
v -0.137804 0.086667 0.027500
v -0.006875 0.162134 0.027500
v -0.087042 0.137429 0.027500
v -0.076012 0.143324 0.027500
v 0.136554 0.086667 0.027500
v 0.142449 0.075637 0.027500
v 0.074762 0.143324 0.027500
v 0.085792 0.137429 0.027500
v 0.005625 0.162134 0.027500
v -0.187993 0.101210 0.027500
v 0.186743 0.101210 0.027500
v -0.182227 0.112315 0.027500
v -0.006875 0.218366 0.027500
v -0.114258 0.184569 0.027500
v -0.103304 0.190596 0.027500
v 0.180977 0.112315 0.027500
v 0.102054 0.190596 0.027500
v 0.113008 0.184569 0.027500
v 0.005625 0.218366 0.027500
v -0.250625 0.000250 0.027500
v 0.249375 0.000250 0.027500
v -0.250625 0.213532 0.024670
v -0.212409 0.250250 0.002098
v -0.249467 0.221353 -0.000044
v -0.246225 0.228310 -0.000045
v -0.241761 0.234718 -0.000044
v -0.232502 0.242911 -0.000044
v -0.230233 0.244459 -0.000044
v -0.228500 0.245641 -0.000044
v -0.226925 0.246221 -0.000044
v -0.217647 0.249637 -0.000049
v -0.250625 0.213532 0.027457
v -0.249467 0.221353 0.027456
v -0.246225 0.228310 0.027455
v -0.244971 0.231000 0.027456
v -0.243333 0.232898 0.027456
v -0.241761 0.234718 0.027456
v -0.238421 0.238587 0.027456
v -0.234186 0.241763 0.027456
v -0.232502 0.242911 0.027456
v -0.230233 0.244459 0.027456
v -0.228500 0.245641 0.027456
v -0.226925 0.246221 0.027456
v -0.225063 0.246906 0.027455
v -0.250625 0.213532 0.000000
v -0.212409 0.250250 0.027450
v -0.212409 0.250250 0.000000
v -0.217647 0.249637 0.027451
v -0.244971 0.231000 -0.000044
v -0.243333 0.232898 -0.000044
v -0.238421 0.238587 -0.000044
v -0.234186 0.241763 -0.000044
v -0.225063 0.246906 -0.000045
v 0.212409 0.250250 0.025421
v 0.249375 0.221549 0.025277
v 0.245351 0.230186 -0.000005
v 0.243654 0.232526 -0.000005
v 0.242492 0.233872 -0.000005
v 0.241009 0.235590 -0.000004
v 0.237856 0.239242 -0.000004
v 0.233647 0.242130 -0.000004
v 0.232036 0.243229 -0.000004
v 0.229865 0.244710 -0.000004
v 0.228500 0.245641 -0.000004
v 0.226530 0.246366 -0.000005
v 0.224736 0.247027 -0.000005
v 0.217647 0.249637 -0.000009
v 0.243654 0.232526 0.027455
v 0.241009 0.235590 0.027456
v 0.232036 0.243229 0.027456
v 0.229865 0.244710 0.027456
v 0.228500 0.245641 0.027456
v 0.226530 0.246366 0.027455
v 0.224736 0.247027 0.027455
v 0.217647 0.249637 0.027451
v 0.245351 0.230186 0.027455
v 0.249375 0.221549 0.027456
v 0.242492 0.233872 0.027455
v 0.237856 0.239242 0.027456
v 0.233647 0.242130 0.027456
v 0.212409 0.250250 0.027450
v 0.212409 0.250250 0.000000
v 0.249375 0.221549 0.000000
v -0.245971 -0.093000 -0.000050
v -0.238820 -0.101284 -0.000050
v -0.229500 -0.107641 -0.000050
v -0.218647 -0.111637 -0.000050
v 0.227905 -0.107365 -0.000000
v 0.216647 -0.111637 -0.000000
v 0.236820 -0.101284 -0.000000
v 0.243971 -0.093000 -0.000000
v 0.248467 -0.083353 -0.000000
v -0.213409 -0.112250 0.027450
v -0.213409 -0.112250 0.002043
v -0.213409 -0.112250 0.000000
v -0.245971 -0.093000 0.036250
v -0.238820 -0.101284 0.036250
v -0.229500 -0.107641 0.036250
v -0.218647 -0.111637 0.036250
v -0.250625 -0.082284 0.027450
v -0.250625 -0.082284 0.002269
v -0.250625 -0.082284 0.000000
v -0.250575 -0.082521 0.036250
v -0.213409 -0.112250 0.036250
v -0.250588 -0.082532 0.033939
v 0.216647 -0.111637 0.036250
v 0.248467 -0.083353 0.036250
v 0.243971 -0.093000 0.036250
v 0.236820 -0.101284 0.036250
v 0.249375 -0.077220 0.002653
v 0.249375 -0.077220 0.027450
v 0.249375 -0.077220 0.000000
v 0.211409 -0.112250 0.027450
v 0.211409 -0.112250 0.025366
v 0.211409 -0.112250 0.000000
v 0.227905 -0.107365 0.036250
v 0.211409 -0.112250 0.036250
v 0.249625 -0.075532 0.036250
v 0.249545 -0.076075 0.033436
vn 0.000000 -0.000000 1.000000
vn 0.195090 0.980785 0.000000
vn 0.555570 0.831470 0.000000
vn 0.831470 0.555570 0.000000
vn -0.831470 0.555570 0.000000
vn -0.555570 0.831470 0.000000
vn -0.195090 0.980785 0.000000
vn 0.980785 0.195090 0.000000
vn -0.980785 0.195090 0.000000
vn 0.000000 1.000000 0.000000
vn -0.000357 0.000185 1.000000
vn -0.000196 0.000355 1.000000
vn 0.000357 0.000185 1.000000
vn 0.000196 0.000355 1.000000
vn -0.999984 -0.000003 0.005668
vn 0.999599 0.000018 -0.028324
vn -0.000000 -1.000000 -0.000000
vn 0.000000 0.001568 0.999999
vn -0.915512 -0.402227 0.007120
vn -0.914062 -0.405442 -0.010335
vn -0.917240 -0.398335 0.000000
vn 0.116231 0.993222 -0.000000
vn -0.116231 -0.993222 0.000000
vn 0.116231 -0.993222 0.000000
vn 0.989209 -0.146510 0.000000
vn 0.989209 -0.146510 -0.000001
vn 0.989209 -0.146509 0.000000
vn -0.000205 0.000200 1.000000
vn -0.000206 0.000200 1.000000
vn -0.000487 0.000143 1.000000
vn -0.000487 0.000144 1.000000
vn -0.000358 0.000186 1.000000
vn -0.000387 0.000173 1.000000
vn -0.000285 0.000227 1.000000
vn -0.000235 0.000278 1.000000
vn -0.000195 0.000356 1.000000
vn -0.000155 0.000497 1.000000
vn -0.000157 0.000499 1.000000
vn -0.000090 0.000883 1.000000
vn -0.000089 0.000884 1.000000
vn 0.000205 0.000200 1.000000
vn 0.000487 0.000143 1.000000
vn 0.000487 0.000144 1.000000
vn 0.000357 0.000186 1.000000
vn 0.000285 0.000227 1.000000
vn 0.000235 0.000278 1.000000
vn 0.000195 0.000356 1.000000
vn 0.000155 0.000497 1.000000
vn 0.000156 0.000499 1.000000
vn 0.000090 0.000883 1.000000
vn 0.000089 0.000885 1.000000
vn -1.000000 0.000000 0.000000
vn 1.000000 -0.000000 0.000000
vn -0.999984 0.000000 0.005712
vn 0.999592 -0.000000 -0.028560
vn 0.999592 0.000000 -0.028559
vn -0.989209 0.146510 0.000000
vn 0.906418 -0.422381 0.000000
vn 0.906417 -0.422383 0.000000
vn -0.906417 0.422383 0.000000
vn 0.756969 -0.653451 0.000000
vn -0.756969 0.653451 0.000000
vn 0.756970 -0.653450 0.000000
vn -0.756971 0.653448 0.000000
vn -0.599863 0.800103 0.000000
vn 0.563480 -0.826130 0.000000
vn -0.563480 0.826130 0.000000
vn 0.563478 -0.826131 0.000000
vn -0.563478 0.826131 0.000000
vn -0.563476 0.826132 0.000000
vn -0.345516 0.938413 0.000000
vn 0.345516 -0.938413 0.000000
vn 0.345513 -0.938414 0.000000
vn 0.116230 -0.993222 0.000000
vn -0.116230 0.993222 0.000000
vn -0.906418 -0.422382 -0.000000
vn 0.809610 0.586968 0.000000
vn -0.809610 -0.586968 -0.000000
vn -0.756969 -0.653450 -0.000000
vn 0.756972 0.653447 0.000000
vn -0.756972 -0.653447 0.000000
vn 0.756970 0.653450 0.000000
vn -0.756970 -0.653450 -0.000000
vn -0.565809 -0.824536 -0.000000
vn 0.563479 0.826130 0.000000
vn -0.563479 -0.826130 -0.000000
vn -0.563476 -0.826132 -0.000000
vn 0.345514 0.938414 0.000000
vn -0.345514 -0.938414 -0.000000
vn 0.345517 0.938412 0.000000
vn 0.116230 0.993222 0.000000
vn -0.116230 -0.993222 0.000000
vn 0.756970 0.653449 0.000000
vn -0.563478 -0.826131 0.000000
vn 0.563478 0.826131 0.000000
vn -0.354789 0.934946 0.000000
vn -0.756970 0.653449 0.000000
vn 0.906418 -0.422382 0.000000
usemtl black.001
s off
f 50//1 48//1 39//1
f 39//1 48//1 38//1
f 42//1 53//1 41//1
f 53//1 52//1 41//1
f 57//1 51//1 47//1
f 51//1 40//1 47//1
f 56//1 55//1 46//1
f 55//1 45//1 46//1
f 49//1 54//1 43//1
f 49//1 43//1 44//1
usemtl blatt.001
f 40//1 29//1 47//1
f 51//1 28//1 40//1
f 28//1 27//1 40//1
f 27//1 53//1 42//1
f 40//1 27//1 42//1
f 40//1 42//1 29//1
f 42//1 21//1 29//1
f 48//1 23//1 38//1
f 38//1 23//1 22//1
f 38//1 22//1 21//1
f 24//1 50//1 39//1
f 25//1 24//1 39//1
f 26//1 25//1 39//1
f 52//1 26//1 41//1
f 41//1 26//1 39//1
f 41//1 39//1 38//1
f 42//1 38//1 21//1
f 42//1 41//1 38//1
f 37//1 57//1 47//1
f 36//1 37//1 47//1
f 55//1 36//1 45//1
f 36//1 47//1 45//1
f 45//1 47//1 29//1
f 30//1 45//1 29//1
f 32//1 49//1 44//1
f 32//1 44//1 31//1
f 31//1 44//1 30//1
f 54//1 33//1 43//1
f 33//1 34//1 43//1
f 34//1 35//1 43//1
f 35//1 56//1 46//1
f 35//1 46//1 43//1
f 46//1 45//1 43//1
f 43//1 45//1 44//1
f 44//1 45//1 30//1
usemtl rahmen.001
f 22//1 58//1 21//1
f 31//1 30//1 59//1
f 4//1 17//1 19//1
f 4//1 5//1 17//1
f 3//1 5//1 4//1
f 3//1 2//1 5//1
f 2//1 6//1 5//1
f 1//1 7//1 2//1
f 2//1 7//1 6//1
f 9//2 1//2 2//2
f 8//2 1//2 9//2
f 10//3 2//3 3//3
f 9//3 2//3 10//3
f 11//4 3//4 4//4
f 10//4 3//4 11//4
f 6//5 12//5 5//5
f 6//5 13//5 12//5
f 7//6 13//6 6//6
f 7//6 14//6 13//6
f 1//7 14//7 7//7
f 1//7 8//7 14//7
f 11//8 4//8 20//8
f 20//8 4//8 19//8
f 5//9 12//9 18//9
f 5//9 18//9 17//9
f 58//10 15//10 17//10
f 16//10 59//10 19//10
f 59//10 20//10 19//10
f 59//10 58//10 20//10
f 58//10 18//10 20//10
f 18//10 58//10 17//10
f 50//11 74//11 48//11
f 77//12 26//12 52//12
f 116//13 54//13 49//13
f 35//14 118//14 56//14
f 138//15 143//15 58//15
f 157//16 149//16 59//16
f 142//17 151//17 155//17
f 131//17 151//17 142//17
f 82//18 51//18 57//18
f 134//19 141//19 143//19
f 134//20 143//20 138//20
f 122//21 139//21 140//21
f 122//21 134//21 138//21
f 122//21 138//21 139//21
f 132//22 133//22 125//22
f 131//23 125//23 132//23
f 142//23 137//23 131//23
f 125//23 131//23 137//23
f 152//24 153//24 127//24
f 127//24 151//24 152//24
f 144//24 155//24 151//24
f 127//24 144//24 151//24
f 150//25 148//25 130//25
f 149//25 130//25 148//25
f 156//26 145//26 157//26
f 145//27 149//27 157//27
f 145//25 130//25 149//25
f 22//28 70//28 58//28
f 72//28 70//28 22//28
f 72//29 71//29 70//29
f 23//30 72//30 22//30
f 73//31 72//31 23//31
f 48//32 73//32 23//32
f 74//33 73//33 48//33
f 24//11 74//11 50//11
f 75//11 74//11 24//11
f 25//34 75//34 24//34
f 76//34 75//34 25//34
f 77//35 76//35 25//35
f 26//35 77//35 25//35
f 53//12 78//12 52//12
f 78//36 77//36 52//36
f 27//12 79//12 53//12
f 79//12 78//12 53//12
f 28//37 81//37 27//37
f 81//37 79//37 27//37
f 81//38 80//38 79//38
f 51//39 82//39 28//39
f 82//40 81//40 28//40
f 115//41 114//41 31//41
f 115//41 31//41 59//41
f 114//42 32//42 31//42
f 114//43 106//43 32//43
f 106//13 49//13 32//13
f 106//13 116//13 49//13
f 116//13 33//13 54//13
f 116//44 107//44 33//44
f 107//45 34//45 33//45
f 107//45 117//45 34//45
f 118//46 35//46 34//46
f 117//46 118//46 34//46
f 108//14 55//14 56//14
f 118//47 108//47 56//47
f 109//14 36//14 55//14
f 108//14 109//14 55//14
f 111//48 37//48 36//48
f 110//49 111//49 109//49
f 109//48 111//48 36//48
f 112//50 57//50 37//50
f 111//51 112//51 37//51
f 60//52 139//52 138//52
f 70//52 60//52 138//52
f 60//52 83//52 139//52
f 83//52 140//52 139//52
f 92//10 61//10 84//10
f 92//10 84//10 119//10
f 120//10 85//10 61//10
f 120//10 61//10 92//10
f 93//53 115//53 149//53
f 148//53 93//53 149//53
f 150//53 121//53 148//53
f 121//53 93//53 148//53
f 131//17 152//17 151//17
f 132//17 152//17 131//17
f 132//17 153//17 152//17
f 133//17 153//17 132//17
f 141//1 134//1 135//1
f 141//1 135//1 136//1
f 15//1 141//1 136//1
f 15//1 136//1 137//1
f 15//1 137//1 142//1
f 144//1 154//1 155//1
f 154//1 15//1 155//1
f 15//1 142//1 155//1
f 16//1 15//1 154//1
f 156//1 16//1 154//1
f 147//1 156//1 154//1
f 145//1 156//1 146//1
f 146//1 156//1 147//1
f 141//54 15//54 143//54
f 15//54 58//54 143//54
f 59//55 156//55 157//55
f 59//56 16//56 156//56
f 113//18 119//18 112//18
f 112//18 119//18 57//18
f 84//18 86//18 82//18
f 84//18 82//18 57//18
f 119//18 84//18 57//18
f 71//57 62//57 83//57
f 83//25 71//25 70//25
f 62//58 72//58 71//58
f 63//58 72//58 62//58
f 87//59 73//59 72//59
f 87//60 63//60 72//60
f 88//61 74//61 73//61
f 88//62 87//62 73//62
f 64//63 75//63 74//63
f 88//63 64//63 74//63
f 89//64 64//64 75//64
f 76//64 89//64 75//64
f 90//65 89//65 76//65
f 77//65 90//65 76//65
f 90//66 78//66 77//66
f 78//67 65//67 90//67
f 66//68 79//68 65//68
f 79//69 65//69 78//69
f 80//70 66//70 79//70
f 80//70 67//70 66//70
f 81//71 67//71 80//71
f 81//71 68//71 67//71
f 68//72 82//72 81//72
f 91//72 82//72 68//72
f 91//73 86//73 82//73
f 69//73 86//73 91//73
f 85//74 84//74 86//74
f 85//75 69//75 86//75
f 114//76 121//76 115//76
f 114//76 94//76 121//76
f 95//77 106//77 114//77
f 95//78 94//78 114//78
f 96//79 95//79 106//79
f 116//79 96//79 106//79
f 96//80 97//80 116//80
f 107//81 97//81 116//81
f 98//82 117//82 107//82
f 98//83 97//83 107//83
f 99//84 98//84 117//84
f 118//84 99//84 117//84
f 99//85 108//85 118//85
f 100//85 108//85 99//85
f 109//86 100//86 108//86
f 109//86 101//86 100//86
f 110//87 101//87 109//87
f 110//87 102//87 101//87
f 103//88 111//88 102//88
f 111//89 102//89 110//89
f 103//90 112//90 111//90
f 104//90 112//90 103//90
f 104//88 113//88 112//88
f 113//89 105//89 104//89
f 105//91 120//91 113//91
f 119//92 120//92 113//92
f 123//93 134//93 135//93
f 122//93 134//93 123//93
f 135//94 123//94 124//94
f 124//95 135//95 136//95
f 125//88 136//88 137//88
f 124//88 136//88 125//88
f 154//96 127//96 144//96
f 154//96 126//96 127//96
f 128//68 147//68 126//68
f 147//69 126//69 154//69
f 146//97 128//97 147//97
f 146//97 129//97 128//97
f 129//98 145//98 146//98
f 130//98 145//98 129//98
