# Blender v2.63 (sub 0) OBJ File: ''
# www.blender.org
mtllib anzeigerpfeil_verkleidung.mtl
o anzeigerpfeil_verkleidung
v -0.250625 -0.112250 -0.000000
v -0.250625 0.250250 -0.000000
v 0.249375 0.250250 -0.000000
v 0.249375 -0.112250 -0.000000
v -0.000625 0.062750 0.016250
v 0.023293 0.057992 0.016250
v 0.043569 0.044444 0.016250
v 0.057117 0.024168 0.016250
v -0.058367 0.024168 0.016250
v -0.044819 0.044444 0.016250
v -0.024543 0.057992 0.016250
v -0.000625 0.062750 0.011250
v 0.023293 0.057992 0.011250
v 0.043569 0.044444 0.011250
v 0.057117 0.024168 0.011250
v -0.058367 0.024168 0.011250
v -0.044819 0.044444 0.011250
v -0.024543 0.057992 0.011250
v -0.250375 -0.112250 0.016250
v -0.250375 0.000250 0.016250
v 0.249625 0.000250 0.016250
v 0.249625 -0.112250 0.016250
v -0.250625 -0.112250 0.007450
v -0.250625 0.000250 0.007500
v -0.063125 0.000250 0.016250
v -0.063125 0.000250 0.011250
v 0.061875 0.000250 0.016250
v 0.061875 0.000250 0.011250
v 0.249375 -0.112250 0.007450
v 0.249375 0.000250 0.007500
v -0.250625 0.250250 0.007450
v 0.249375 0.250250 0.007450
v -0.213125 0.000250 0.007500
v -0.209042 0.042926 0.007500
v -0.196949 0.083962 0.007500
v -0.177312 0.121781 0.007500
v -0.150885 0.154930 0.007500
v -0.118684 0.182134 0.007500
v -0.081945 0.202349 0.007500
v -0.042082 0.214797 0.007500
v -0.000625 0.000250 0.007500
v 0.211875 0.000250 0.007500
v 0.207792 0.042926 0.007500
v 0.195699 0.083962 0.007500
v 0.176062 0.121781 0.007500
v 0.149635 0.154930 0.007500
v 0.117434 0.182134 0.007500
v 0.080695 0.202349 0.007500
v 0.040832 0.214797 0.007500
v -0.143699 0.075637 0.007500
v -0.137804 0.086667 0.007500
v -0.006875 0.162134 0.007500
v -0.087042 0.137429 0.007500
v -0.076012 0.143324 0.007500
v 0.136554 0.086667 0.007500
v 0.142449 0.075637 0.007500
v 0.074762 0.143324 0.007500
v 0.085792 0.137429 0.007500
v 0.005625 0.162134 0.007500
v -0.187993 0.101210 0.007500
v 0.186743 0.101210 0.007500
v -0.182227 0.112315 0.007500
v -0.006875 0.218366 0.007500
v -0.114258 0.184569 0.007500
v -0.103304 0.190596 0.007500
v 0.180977 0.112315 0.007500
v 0.102054 0.190596 0.007500
v 0.113008 0.184569 0.007500
v 0.005625 0.218366 0.007500
v -0.250625 0.000250 0.007500
v 0.249375 0.000250 0.007500
v -0.250625 0.250250 0.007450
v 0.249375 0.250250 0.007450
vn 0.000000 -0.000000 1.000000
vn -0.000205 0.000200 1.000000
vn -0.000487 0.000143 1.000000
vn -0.000357 0.000185 1.000000
vn -0.000285 0.000227 1.000000
vn -0.000235 0.000278 1.000000
vn -0.000196 0.000355 1.000000
vn -0.000155 0.000497 1.000000
vn -0.000090 0.000883 1.000000
vn 0.000205 0.000200 1.000000
vn 0.000487 0.000143 1.000000
vn 0.000357 0.000185 1.000000
vn 0.000285 0.000227 1.000000
vn 0.000235 0.000278 1.000000
vn 0.000196 0.000355 1.000000
vn 0.000155 0.000497 1.000000
vn 0.000090 0.000883 1.000000
vn -1.000000 0.000000 0.000000
vn 0.000000 1.000000 0.000000
vn 1.000000 -0.000000 0.000000
vn -0.000000 -1.000000 0.000000
vn 0.195090 0.980785 0.000000
vn 0.555570 0.831470 0.000000
vn 0.831470 0.555570 0.000000
vn -0.831470 0.555570 0.000000
vn -0.555570 0.831470 0.000000
vn -0.195090 0.980785 0.000000
vn 0.980785 0.195090 0.000000
vn -0.980785 0.195090 0.000000
vn -0.999597 -0.000013 0.028396
vn -0.999592 0.000000 0.028558
vn 0.999592 0.000000 -0.028559
vn 0.999597 0.000013 -0.028397
vn 0.000000 0.001568 0.999999
usemtl black
s off
f 62//1 60//1 51//1
f 51//1 60//1 50//1
f 54//1 65//1 53//1
f 65//1 64//1 53//1
f 69//1 63//1 59//1
f 63//1 52//1 59//1
f 68//1 67//1 58//1
f 67//1 57//1 58//1
f 61//1 66//1 55//1
f 61//1 55//1 56//1
usemtl blatt
f 52//1 41//1 59//1
f 63//1 40//1 52//1
f 40//1 39//1 52//1
f 39//1 65//1 54//1
f 52//1 39//1 54//1
f 52//1 54//1 41//1
f 54//1 33//1 41//1
f 60//1 35//1 50//1
f 50//1 35//1 34//1
f 50//1 34//1 33//1
f 36//1 62//1 51//1
f 37//1 36//1 51//1
f 38//1 37//1 51//1
f 64//1 38//1 53//1
f 53//1 38//1 51//1
f 53//1 51//1 50//1
f 54//1 50//1 33//1
f 54//1 53//1 50//1
f 49//1 69//1 59//1
f 48//1 49//1 59//1
f 67//1 48//1 57//1
f 48//1 59//1 57//1
f 57//1 59//1 41//1
f 42//1 57//1 41//1
f 44//1 61//1 56//1
f 44//1 56//1 43//1
f 43//1 56//1 42//1
f 66//1 45//1 55//1
f 45//1 46//1 55//1
f 46//1 47//1 55//1
f 47//1 68//1 58//1
f 47//1 58//1 55//1
f 58//1 57//1 55//1
f 55//1 57//1 56//1
f 56//1 57//1 42//1
usemtl rahmen
f 34//1 70//1 33//1
f 34//2 72//2 70//2
f 35//3 72//3 34//3
f 60//4 72//4 35//4
f 62//4 72//4 60//4
f 36//4 72//4 62//4
f 37//5 72//5 36//5
f 38//6 72//6 37//6
f 64//7 72//7 38//7
f 65//7 72//7 64//7
f 39//7 72//7 65//7
f 40//8 72//8 39//8
f 63//9 72//9 40//9
f 43//1 42//1 71//1
f 43//10 71//10 73//10
f 73//11 44//11 43//11
f 73//12 61//12 44//12
f 73//12 66//12 61//12
f 73//12 45//12 66//12
f 73//13 46//13 45//13
f 73//14 47//14 46//14
f 73//15 68//15 47//15
f 73//15 67//15 68//15
f 73//15 48//15 67//15
f 73//16 49//16 48//16
f 73//17 69//17 49//17
f 31//18 1//18 23//18
f 1//18 31//18 2//18
f 2//19 31//19 32//19
f 3//19 2//19 32//19
f 4//20 32//20 29//20
f 3//20 32//20 4//20
f 23//21 1//21 29//21
f 1//21 4//21 29//21
f 8//1 25//1 27//1
f 8//1 9//1 25//1
f 7//1 9//1 8//1
f 7//1 6//1 9//1
f 6//1 10//1 9//1
f 5//1 11//1 6//1
f 6//1 11//1 10//1
f 13//22 5//22 6//22
f 12//22 5//22 13//22
f 14//23 6//23 7//23
f 13//23 6//23 14//23
f 15//24 7//24 8//24
f 14//24 7//24 15//24
f 10//25 16//25 9//25
f 10//25 17//25 16//25
f 11//26 17//26 10//26
f 11//26 18//26 17//26
f 5//27 18//27 11//27
f 5//27 12//27 18//27
f 15//28 8//28 28//28
f 28//28 8//28 27//28
f 9//29 16//29 26//29
f 9//29 26//29 25//29
f 20//1 19//1 22//1
f 21//1 20//1 22//1
f 24//30 23//30 19//30
f 20//31 24//31 19//31
f 30//32 21//32 22//32
f 29//33 30//33 22//33
f 19//21 29//21 22//21
f 23//21 29//21 19//21
f 24//19 20//19 25//19
f 21//19 30//19 27//19
f 30//19 28//19 27//19
f 30//19 24//19 28//19
f 24//19 26//19 28//19
f 26//19 24//19 25//19
f 72//34 63//34 69//34
f 73//34 72//34 69//34
