# Blender v2.63 (sub 0) OBJ File: ''
# www.blender.org
mtllib hebel1.mtl
o hebel1
v -0.140000 0.350000 -0.030000
v -0.140000 0.365000 -0.025981
v -0.140000 0.375981 -0.015000
v -0.140000 0.380000 0.000000
v -0.140000 0.375981 0.015000
v -0.140000 0.365000 0.025981
v -0.140000 0.350000 0.030000
v -0.140000 0.335000 0.025981
v -0.140000 0.324019 0.015000
v -0.140000 0.320000 0.000000
v -0.140000 0.324019 -0.015000
v -0.140000 0.335000 -0.025981
v 0.140000 0.350000 -0.030000
v 0.140000 0.365000 -0.025981
v 0.140000 0.375981 -0.015000
v 0.140000 0.380000 0.000000
v 0.140000 0.375981 0.015000
v 0.140000 0.365000 0.025981
v 0.140000 0.350000 0.030000
v 0.140000 0.335000 0.025981
v 0.140000 0.324019 0.015000
v 0.140000 0.320000 0.000000
v 0.140000 0.324019 -0.015000
v 0.140000 0.335000 -0.025981
v -0.019151 0.324019 0.015000
v -0.012500 0.330670 0.021651
v -0.000000 0.334019 0.025000
v 0.012500 0.330670 0.021651
v 0.019151 0.324019 0.015000
v 0.025000 0.320000 0.000000
v -0.025000 0.320000 0.000000
v -0.021651 0.323349 0.012500
v 0.021651 0.323349 0.012500
v 0.021651 0.323349 -0.012500
v 0.019151 0.324019 -0.015000
v -0.019151 0.324019 -0.015000
v -0.021651 0.323349 -0.012500
v 0.012500 0.330670 -0.021651
v 0.000000 0.334019 -0.025000
v -0.012500 0.330670 -0.021651
v 0.025000 0.320000 0.000000
v 0.021651 0.323349 -0.012500
v 0.019151 0.324019 -0.015000
v 0.012500 0.330670 -0.021651
v 0.000000 0.334019 -0.025000
v -0.012500 0.330670 -0.021651
v -0.021651 0.323349 -0.012500
v -0.019151 0.324019 -0.015000
v -0.025000 0.320000 0.000000
v -0.021651 0.323349 0.012500
v -0.012500 0.330670 0.021651
v -0.019151 0.324019 0.015000
v 0.000000 0.334019 0.025000
v 0.012500 0.330670 0.021651
v 0.019151 0.324019 0.015000
v 0.021651 0.323349 0.012500
v 0.021651 0.098354 -0.012500
v 0.025000 0.100000 0.000000
v 0.012500 0.097150 -0.021651
v 0.000000 0.096709 -0.025000
v -0.012500 0.097150 -0.021651
v -0.021651 0.098354 -0.012500
v -0.025000 0.100000 0.000000
v -0.021651 0.098354 0.012500
v -0.012500 0.097150 0.021651
v 0.000000 0.096709 0.025000
v 0.012500 0.097150 0.021651
v 0.021651 0.098354 0.012500
v -0.025000 0.000000 -0.100000
v -0.025000 0.025882 -0.096593
v -0.025000 0.050000 -0.086603
v -0.025000 0.070711 -0.070711
v -0.025000 0.086603 -0.050000
v -0.025000 0.096593 -0.025882
v -0.025000 0.100000 0.000000
v -0.025000 0.096593 0.025882
v -0.025000 0.086603 0.050000
v -0.025000 0.070711 0.070711
v -0.025000 0.050000 0.086603
v -0.025000 0.025882 0.096593
v -0.025000 0.000000 0.100000
v -0.025000 -0.025882 0.096593
v -0.025000 -0.050000 0.086603
v -0.025000 -0.070711 0.070711
v -0.025000 -0.086603 0.050000
v -0.025000 -0.096593 0.025882
v -0.025000 -0.100000 0.000000
v -0.025000 -0.096593 -0.025882
v -0.025000 -0.086603 -0.050000
v -0.025000 -0.070711 -0.070711
v -0.025000 -0.050000 -0.086603
v -0.025000 -0.025882 -0.096593
v 0.025000 0.000000 -0.100000
v 0.025000 0.025882 -0.096593
v 0.025000 0.050000 -0.086603
v 0.025000 0.070711 -0.070711
v 0.025000 0.086603 -0.050000
v 0.025000 0.096593 -0.025882
v 0.025000 0.100000 0.000000
v 0.025000 0.096593 0.025882
v 0.025000 0.086603 0.050000
v 0.025000 0.070711 0.070711
v 0.025000 0.050000 0.086603
v 0.025000 0.025882 0.096593
v 0.025000 0.000000 0.100000
v 0.025000 -0.025882 0.096593
v 0.025000 -0.050000 0.086603
v 0.025000 -0.070711 0.070711
v 0.025000 -0.086603 0.050000
v 0.025000 -0.096593 0.025882
v 0.025000 -0.100000 0.000000
v 0.025000 -0.096593 -0.025882
v 0.025000 -0.086603 -0.050000
v 0.025000 -0.070711 -0.070711
v 0.025000 -0.050000 -0.086603
v 0.025000 -0.025882 -0.096593
v 0.021651 0.098354 -0.012500
v 0.012500 0.097150 -0.021651
v 0.000000 0.096709 -0.025000
v -0.012500 0.097150 -0.021651
v -0.021651 0.098354 -0.012500
v -0.021651 0.098354 0.012500
v -0.012500 0.097150 0.021651
v 0.000000 0.096709 0.025000
v 0.012500 0.097150 0.021651
v 0.021651 0.098354 0.012500
vn -1.000000 0.000000 0.000000
vn 0.000000 0.258819 -0.965926
vn 0.000000 0.707107 -0.707107
vn 0.000000 0.965926 -0.258819
vn 0.000000 0.965926 0.258819
vn 0.000000 0.707107 0.707107
vn 0.000000 0.258819 0.965926
vn 0.000000 -0.258819 0.965926
vn 0.000000 -0.258819 -0.965926
vn 1.000000 -0.000000 0.000000
vn 0.000000 -0.707108 0.707106
vn -0.000000 -0.707107 0.707106
vn 0.000000 -0.707116 0.707097
vn 0.000000 -0.965926 0.258820
vn 0.000000 -0.965924 0.258828
vn -0.000000 -0.965926 0.258819
vn 0.000000 -0.965926 -0.258820
vn -0.000000 -0.965926 -0.258819
vn -0.000000 -0.965924 -0.258828
vn 0.000000 -0.707108 -0.707106
vn 0.000000 -0.707107 -0.707106
vn -0.000000 -0.707116 -0.707097
vn 0.965926 0.000000 -0.258819
vn 0.707107 0.000000 -0.707107
vn 0.258819 0.000000 -0.965926
vn -0.258819 0.000000 -0.965926
vn -0.707107 -0.000000 -0.707107
vn -0.965926 0.000000 -0.258819
vn -0.965926 0.000000 0.258819
vn -0.707107 0.000000 0.707107
vn -0.258819 0.000000 0.965926
vn 0.258819 -0.000000 0.965926
vn 0.707107 0.000000 0.707107
vn 0.965926 -0.000000 0.258819
vn 0.000000 0.130526 -0.991445
vn 0.000000 0.382683 -0.923879
vn 0.000000 0.608762 -0.793353
vn 0.000000 0.793353 -0.608762
vn 0.000000 0.923879 -0.382683
vn 0.000000 0.923879 0.382683
vn 0.000000 0.793353 0.608762
vn 0.000000 0.608762 0.793353
vn 0.000000 0.382683 0.923879
vn 0.000000 0.130526 0.991445
vn 0.000000 -0.130526 0.991445
vn 0.000000 -0.382683 0.923879
vn 0.000000 -0.608762 0.793353
vn 0.000000 -0.793353 0.608762
vn 0.000000 -0.923879 0.382683
vn 0.000000 -0.991445 0.130526
vn 0.000000 -0.991445 -0.130526
vn 0.000000 -0.923879 -0.382683
vn 0.000000 -0.793353 -0.608762
vn 0.000000 -0.608762 -0.793353
vn 0.000000 -0.382683 -0.923879
vn 0.000000 -0.130526 -0.991445
vn 0.000001 0.991445 -0.130526
vn -0.000000 0.991445 -0.130526
vn -0.000000 0.991445 -0.130527
vn -0.000001 0.991445 -0.130526
vn 0.000000 0.991445 -0.130523
vn -0.000001 0.991445 0.130526
vn 0.000000 0.991445 0.130526
vn 0.000000 0.991445 0.130527
vn 0.000001 0.991445 0.130526
vn 0.000000 0.991445 0.130523
usemtl griff
s off
f 9//1 11//1 10//1
f 8//1 11//1 9//1
f 8//1 7//1 11//1
f 7//1 6//1 11//1
f 6//1 5//1 11//1
f 5//1 4//1 11//1
f 4//1 3//1 11//1
f 3//1 2//1 11//1
f 2//1 1//1 11//1
f 1//1 12//1 11//1
f 1//2 14//2 13//2
f 1//2 2//2 14//2
f 15//3 14//3 2//3
f 3//3 15//3 2//3
f 16//4 15//4 3//4
f 4//4 16//4 3//4
f 16//5 5//5 17//5
f 16//5 4//5 5//5
f 17//6 6//6 18//6
f 17//6 5//6 6//6
f 18//7 7//7 19//7
f 18//7 6//7 7//7
f 19//8 8//8 20//8
f 19//8 7//8 8//8
f 13//9 24//9 12//9
f 1//9 13//9 12//9
f 23//10 21//10 22//10
f 23//10 24//10 21//10
f 24//10 13//10 21//10
f 13//10 14//10 21//10
f 14//10 15//10 21//10
f 15//10 16//10 21//10
f 16//10 17//10 21//10
f 17//10 18//10 21//10
f 19//10 20//10 21//10
f 18//10 19//10 21//10
f 21//11 20//11 29//11
f 8//11 9//11 25//11
f 20//12 28//12 29//12
f 26//12 8//12 25//12
f 27//12 8//12 26//12
f 20//13 8//13 27//13
f 20//12 27//12 28//12
f 9//14 10//14 31//14
f 25//15 9//15 32//15
f 32//16 9//16 31//16
f 22//14 21//14 30//14
f 21//16 33//16 30//16
f 21//15 29//15 33//15
f 10//17 11//17 31//17
f 11//18 37//18 31//18
f 11//19 36//19 37//19
f 23//17 22//17 30//17
f 35//19 23//19 34//19
f 34//18 23//18 30//18
f 11//20 12//20 36//20
f 24//20 23//20 35//20
f 12//21 40//21 36//21
f 38//21 24//21 35//21
f 39//21 24//21 38//21
f 12//21 39//21 40//21
f 12//22 24//22 39//22
usemtl rad
f 42//23 41//23 57//23
f 41//23 58//23 57//23
f 42//24 57//24 59//24
f 43//24 42//24 59//24
f 44//24 43//24 59//24
f 45//25 44//25 60//25
f 44//25 59//25 60//25
f 46//26 45//26 60//26
f 61//26 46//26 60//26
f 62//27 47//27 61//27
f 48//27 46//27 61//27
f 47//27 48//27 61//27
f 49//28 47//28 62//28
f 63//28 49//28 62//28
f 50//29 49//29 64//29
f 49//29 63//29 64//29
f 50//30 64//30 65//30
f 52//30 50//30 65//30
f 51//30 52//30 65//30
f 53//31 51//31 66//31
f 51//31 65//31 66//31
f 54//32 53//32 66//32
f 67//32 54//32 66//32
f 68//33 56//33 67//33
f 55//33 54//33 67//33
f 56//33 55//33 67//33
f 41//34 56//34 68//34
f 58//34 41//34 68//34
f 72//1 71//1 70//1
f 72//1 70//1 69//1
f 72//1 69//1 92//1
f 72//1 92//1 91//1
f 72//1 91//1 90//1
f 73//1 72//1 90//1
f 74//1 73//1 90//1
f 75//1 74//1 90//1
f 76//1 75//1 90//1
f 77//1 76//1 90//1
f 78//1 77//1 90//1
f 79//1 78//1 90//1
f 80//1 79//1 90//1
f 81//1 80//1 90//1
f 82//1 81//1 90//1
f 82//1 90//1 89//1
f 82//1 89//1 88//1
f 82//1 88//1 87//1
f 86//1 82//1 87//1
f 83//1 82//1 86//1
f 84//1 83//1 86//1
f 85//1 84//1 86//1
f 94//35 93//35 69//35
f 70//35 94//35 69//35
f 95//36 94//36 70//36
f 71//36 95//36 70//36
f 96//37 95//37 71//37
f 72//37 96//37 71//37
f 97//38 96//38 72//38
f 73//38 97//38 72//38
f 98//39 97//39 73//39
f 74//39 98//39 73//39
f 100//40 77//40 101//40
f 100//40 76//40 77//40
f 101//41 78//41 102//41
f 101//41 77//41 78//41
f 102//42 79//42 103//42
f 102//42 78//42 79//42
f 103//43 80//43 104//43
f 103//43 79//43 80//43
f 104//44 81//44 105//44
f 104//44 80//44 81//44
f 105//45 82//45 106//45
f 105//45 81//45 82//45
f 106//46 83//46 107//46
f 106//46 82//46 83//46
f 107//47 84//47 108//47
f 107//47 83//47 84//47
f 108//48 85//48 109//48
f 108//48 84//48 85//48
f 109//49 86//49 110//49
f 109//49 85//49 86//49
f 110//50 87//50 111//50
f 110//50 86//50 87//50
f 112//51 111//51 87//51
f 88//51 112//51 87//51
f 113//52 112//52 88//52
f 89//52 113//52 88//52
f 114//53 113//53 89//53
f 90//53 114//53 89//53
f 115//54 114//54 90//54
f 91//54 115//54 90//54
f 116//55 115//55 91//55
f 92//55 116//55 91//55
f 93//56 116//56 92//56
f 69//56 93//56 92//56
f 115//10 116//10 114//10
f 116//10 93//10 114//10
f 93//10 94//10 114//10
f 94//10 95//10 114//10
f 95//10 96//10 114//10
f 114//10 96//10 113//10
f 113//10 96//10 112//10
f 112//10 96//10 111//10
f 96//10 110//10 111//10
f 96//10 109//10 110//10
f 96//10 108//10 109//10
f 96//10 107//10 108//10
f 96//10 106//10 107//10
f 96//10 105//10 106//10
f 96//10 104//10 105//10
f 96//10 97//10 104//10
f 97//10 98//10 104//10
f 98//10 99//10 104//10
f 99//10 100//10 104//10
f 100//10 103//10 104//10
f 100//10 102//10 103//10
f 100//10 101//10 102//10
f 117//57 99//57 98//57
f 118//58 117//58 98//58
f 119//59 118//59 98//59
f 75//60 121//60 74//60
f 121//58 120//58 74//58
f 119//61 98//61 74//61
f 120//59 119//59 74//59
f 122//62 75//62 76//62
f 123//63 122//63 76//63
f 124//64 123//64 76//64
f 99//65 126//65 100//65
f 126//63 125//63 100//63
f 124//66 76//66 100//66
f 125//64 124//64 100//64
