# Blender v2.63 (sub 0) OBJ File: ''
# www.blender.org
mtllib Rock1.mtl
o Mesh_Plane.003
v 1.949314 0.000989 -6.620029
v 1.752759 0.000989 -6.589111
v 1.795968 0.055686 -6.558477
v 1.929402 0.055686 -6.579466
v 2.086240 0.000989 -6.485312
v 2.022356 0.055686 -6.488012
v 1.889685 0.000989 -6.200419
v 1.888922 0.055686 -6.294608
v 1.706381 0.000989 -6.246797
v 1.764484 0.055686 -6.326093
v 1.653377 0.000989 -6.494147
v 1.728502 0.055686 -6.494009
v 1.860046 0.120404 -6.441525
vn -0.128734 0.560051 -0.818395
vn -0.128732 0.560054 -0.818393
vn -0.551945 -0.616960 0.560996
vn -0.551943 -0.616963 0.560996
vn -0.585122 -0.703325 -0.403691
vn -0.585122 -0.703326 -0.403690
vn 0.126234 -0.857403 -0.498925
vn 0.126238 -0.857400 -0.498927
vn 0.584119 -0.801958 -0.125170
vn 0.584121 -0.801957 -0.125169
vn 0.500699 -0.689008 0.523992
vn 0.500698 -0.689016 0.523983
vn 0.471350 -0.876143 -0.101004
vn 0.105814 -0.902167 -0.418209
vn -0.425409 -0.856087 -0.293500
vn -0.282640 -0.915198 0.287275
vn -0.071224 0.888766 -0.452795
vn 0.310135 -0.893576 0.324558
usemtl default
s off
f 1//1 2//1 3//1
f 1//2 3//2 4//2
f 1//3 5//3 6//3
f 1//4 6//4 4//4
f 5//5 7//5 8//5
f 5//6 8//6 6//6
f 7//7 9//7 10//7
f 7//8 10//8 8//8
f 9//9 11//9 12//9
f 9//10 12//10 10//10
f 11//11 2//11 3//11
f 11//12 3//12 12//12
f 10//13 12//13 13//13
f 8//14 10//14 13//14
f 6//15 8//15 13//15
f 4//16 6//16 13//16
f 4//17 3//17 13//17
f 12//18 3//18 13//18
