# Blender v2.63 (sub 0) OBJ File: ''
# www.blender.org
mtllib hebel2.mtl
o hebel2
v -0.046000 0.258610 0.039440
v -0.046000 0.258610 -0.039440
v -0.046000 0.178570 0.039440
v -0.046000 0.178570 -0.039440
v -0.185600 0.193638 -0.000000
v -0.185600 0.196949 -0.012354
v -0.185600 0.205992 -0.021398
v -0.185600 0.218346 -0.024708
v -0.185600 0.230700 -0.021398
v -0.185600 0.239744 -0.012354
v -0.185600 0.243054 -0.000000
v -0.185600 0.239744 0.012354
v -0.185600 0.230700 0.021398
v -0.185600 0.218346 0.024708
v -0.185600 0.205992 0.021398
v -0.185600 0.196949 0.012354
v 0.046000 0.258610 0.039440
v 0.046000 0.258610 -0.039440
v 0.046000 0.178570 0.039440
v 0.046000 0.178570 -0.039440
v 0.046000 0.196949 -0.012354
v 0.046000 0.193638 -0.000000
v 0.046000 0.205992 -0.021398
v 0.046000 0.218346 -0.024708
v 0.046000 0.230700 -0.021398
v 0.046000 0.239744 -0.012354
v 0.046000 0.243054 -0.000000
v 0.046000 0.239744 0.012354
v 0.046000 0.230700 0.021398
v 0.046000 0.218346 0.024708
v 0.046000 0.205992 0.021398
v 0.046000 0.196949 0.012354
v 0.185600 0.193638 -0.000000
v 0.185600 0.196949 -0.012354
v 0.185600 0.205992 -0.021398
v 0.185600 0.218346 -0.024708
v 0.185600 0.230700 -0.021398
v 0.185600 0.239744 -0.012354
v 0.185600 0.243054 -0.000000
v 0.185600 0.239744 0.012354
v 0.185600 0.230700 0.021398
v 0.185600 0.218346 0.024708
v 0.185600 0.205992 0.021398
v 0.185600 0.196949 0.012354
v -0.046000 0.196949 -0.012354
v -0.046000 0.193638 -0.000000
v -0.046000 0.205992 -0.021398
v -0.046000 0.218346 -0.024708
v -0.046000 0.230700 -0.021398
v -0.046000 0.239744 -0.012354
v -0.046000 0.243054 -0.000000
v -0.046000 0.239744 0.012354
v -0.046000 0.230700 0.021398
v -0.046000 0.218346 0.024708
v -0.046000 0.205992 0.021398
v -0.046000 0.196949 0.012354
v 0.023000 -0.030000 0.000000
v 0.023000 -0.027716 -0.011481
v 0.023000 -0.021213 -0.021213
v 0.023000 -0.011481 -0.027716
v 0.023000 -0.000000 -0.030000
v 0.023000 0.011481 -0.027716
v 0.023000 0.011481 0.027716
v 0.023000 0.000000 0.030000
v 0.023000 -0.011481 0.027716
v 0.023000 -0.021213 0.021213
v 0.023000 -0.027716 0.011481
v 0.046000 -0.030000 0.000000
v 0.046000 -0.027716 -0.011481
v 0.046000 -0.021213 -0.021213
v 0.046000 -0.011481 -0.027716
v 0.046000 -0.000000 -0.030000
v 0.046000 0.011481 -0.027716
v 0.046000 0.011481 0.027716
v 0.046000 0.000000 0.030000
v 0.046000 -0.011481 0.027716
v 0.046000 -0.021213 0.021213
v 0.046000 -0.027716 0.011481
v -0.023000 -0.030000 0.000000
v -0.023000 -0.027716 -0.011481
v -0.023000 -0.021213 -0.021213
v -0.023000 -0.011481 -0.027716
v -0.023000 -0.000000 -0.030000
v -0.023000 0.011481 -0.027716
v -0.023000 0.011481 0.027716
v -0.023000 0.000000 0.030000
v -0.023000 -0.011481 0.027716
v -0.023000 -0.021213 0.021213
v -0.023000 -0.027716 0.011481
v -0.046000 -0.030000 0.000000
v -0.046000 -0.027716 -0.011481
v -0.046000 -0.021213 -0.021213
v -0.046000 -0.011481 -0.027716
v -0.046000 -0.000000 -0.030000
v -0.046000 0.011481 -0.027716
v -0.046000 0.011481 0.027716
v -0.046000 0.000000 0.030000
v -0.046000 -0.011481 0.027716
v -0.046000 -0.021213 0.021213
v -0.046000 -0.027716 0.011481
v -0.046000 0.178570 0.017400
v -0.046000 0.178570 -0.017500
v -0.023000 0.178570 -0.017500
v -0.023000 0.178570 0.017400
v 0.046000 0.178570 0.017400
v 0.046000 0.178570 -0.017500
v 0.023000 0.178570 -0.017500
v 0.023000 0.178570 0.017300
v -0.023000 0.021213 -0.021213
v -0.023000 0.021213 0.021213
v -0.046000 0.021213 -0.021213
v -0.046000 0.021213 0.021213
v -0.023000 0.023694 -0.017500
v -0.046000 0.023694 -0.017500
v -0.023000 0.023761 0.017400
v -0.046000 0.023761 0.017400
v 0.023000 0.021213 -0.021213
v 0.023000 0.021213 0.021213
v 0.046000 0.021213 -0.021213
v 0.046000 0.021213 0.021213
v 0.023000 0.023694 -0.017500
v 0.046000 0.023694 -0.017500
v 0.023000 0.023828 0.017300
v 0.046000 0.023761 0.017400
vn -1.000000 0.000000 -0.000000
vn 0.000000 -0.980785 -0.195090
vn 0.000000 -0.831470 -0.555570
vn 0.000000 -0.555570 -0.831470
vn 0.000000 -0.195090 -0.980785
vn 0.000000 0.195090 -0.980785
vn 0.000000 0.555570 -0.831470
vn 0.000000 0.555570 0.831470
vn 0.000000 0.195090 0.980785
vn 0.000000 -0.195090 0.980785
vn 0.000000 -0.555570 0.831470
vn 0.000000 -0.831470 0.555570
vn 0.000000 -0.980785 0.195090
vn 1.000000 0.000000 0.000000
vn 0.000000 0.831470 -0.555570
vn -0.000000 0.831470 0.555570
vn -0.000000 -0.965926 -0.258819
vn 0.000000 -0.707107 -0.707107
vn 0.000000 -0.258819 -0.965926
vn 0.000000 0.258819 -0.965926
vn 0.000000 0.707107 -0.707107
vn 0.000000 0.965926 -0.258818
vn -0.000000 0.965926 0.258818
vn 0.000000 0.707107 0.707107
vn 0.000000 0.258819 0.965926
vn 0.000000 -0.258819 0.965926
vn 0.000000 -0.707107 0.707107
vn 0.000000 -0.965926 0.258819
vn 0.000000 1.000000 0.000000
vn -0.000000 -0.000000 -1.000000
vn 0.000000 0.000000 1.000000
vn -0.000000 -1.000000 0.000000
vn -0.004348 0.000000 0.999991
vn -0.004348 0.000000 0.999990
usemtl Default
s off
f 117//1 62//1 118//1
f 118//1 62//1 63//1
f 62//1 61//1 63//1
f 61//1 60//1 63//1
f 63//1 60//1 64//1
f 60//1 59//1 64//1
f 59//1 65//1 64//1
f 59//1 66//1 65//1
f 59//1 58//1 66//1
f 58//1 57//1 67//1
f 58//1 67//1 66//1
f 69//2 68//2 57//2
f 58//2 69//2 57//2
f 70//3 69//3 58//3
f 59//3 70//3 58//3
f 71//4 70//4 59//4
f 60//4 71//4 59//4
f 72//5 71//5 60//5
f 61//5 72//5 60//5
f 73//6 72//6 62//6
f 72//6 61//6 62//6
f 119//7 73//7 117//7
f 73//7 62//7 117//7
f 74//8 120//8 63//8
f 120//8 118//8 63//8
f 75//9 74//9 64//9
f 74//9 63//9 64//9
f 76//10 75//10 64//10
f 65//10 76//10 64//10
f 77//11 76//11 65//11
f 66//11 77//11 65//11
f 78//12 77//12 66//12
f 67//12 78//12 66//12
f 68//13 78//13 67//13
f 57//13 68//13 67//13
f 119//14 120//14 74//14
f 73//14 119//14 74//14
f 73//14 74//14 75//14
f 76//14 73//14 75//14
f 72//14 73//14 76//14
f 77//14 72//14 76//14
f 71//14 72//14 77//14
f 70//14 71//14 77//14
f 78//14 70//14 77//14
f 68//14 69//14 78//14
f 69//14 70//14 78//14
f 109//14 110//14 85//14
f 84//14 109//14 85//14
f 84//14 85//14 86//14
f 87//14 84//14 86//14
f 83//14 84//14 87//14
f 88//14 83//14 87//14
f 82//14 83//14 88//14
f 81//14 82//14 88//14
f 89//14 81//14 88//14
f 79//14 80//14 89//14
f 80//14 81//14 89//14
f 90//2 91//2 79//2
f 91//2 80//2 79//2
f 91//3 92//3 80//3
f 92//3 81//3 80//3
f 92//4 93//4 81//4
f 93//4 82//4 81//4
f 93//5 94//5 82//5
f 94//5 83//5 82//5
f 94//6 95//6 84//6
f 83//6 94//6 84//6
f 95//7 111//7 109//7
f 84//7 95//7 109//7
f 112//8 96//8 85//8
f 110//8 112//8 85//8
f 96//9 97//9 86//9
f 85//9 96//9 86//9
f 97//10 98//10 86//10
f 98//10 87//10 86//10
f 98//11 99//11 87//11
f 99//11 88//11 87//11
f 99//12 100//12 88//12
f 100//12 89//12 88//12
f 100//13 90//13 89//13
f 90//13 79//13 89//13
f 111//1 95//1 112//1
f 112//1 95//1 96//1
f 95//1 94//1 96//1
f 94//1 93//1 96//1
f 96//1 93//1 97//1
f 93//1 92//1 97//1
f 92//1 98//1 97//1
f 92//1 99//1 98//1
f 92//1 91//1 99//1
f 91//1 90//1 100//1
f 91//1 100//1 99//1
f 119//15 117//15 121//15
f 122//15 119//15 121//15
f 124//16 123//16 118//16
f 120//16 124//16 118//16
f 109//15 111//15 113//15
f 111//15 114//15 113//15
f 116//16 112//16 110//16
f 115//16 116//16 110//16
f 124//14 106//14 105//14
f 122//14 106//14 124//14
f 107//1 121//1 123//1
f 107//1 123//1 108//1
f 115//14 103//14 104//14
f 113//14 103//14 115//14
f 102//1 114//1 116//1
f 102//1 116//1 101//1
f 119//14 122//14 120//14
f 122//14 124//14 120//14
f 121//1 117//1 118//1
f 123//1 121//1 118//1
f 109//14 113//14 110//14
f 113//14 115//14 110//14
f 114//1 111//1 112//1
f 116//1 114//1 112//1
usemtl griff1
f 9//1 8//1 10//1
f 10//1 8//1 11//1
f 8//1 7//1 11//1
f 7//1 6//1 11//1
f 6//1 5//1 11//1
f 11//1 5//1 16//1
f 11//1 16//1 15//1
f 11//1 15//1 14//1
f 12//1 11//1 14//1
f 13//1 12//1 14//1
f 45//17 46//17 5//17
f 6//17 45//17 5//17
f 6//18 47//18 45//18
f 7//18 47//18 6//18
f 7//19 48//19 47//19
f 8//19 48//19 7//19
f 48//20 9//20 49//20
f 48//20 8//20 9//20
f 49//21 10//21 50//21
f 49//21 9//21 10//21
f 50//22 11//22 51//22
f 50//22 10//22 11//22
f 51//23 11//23 12//23
f 51//23 12//23 52//23
f 52//24 13//24 53//24
f 52//24 12//24 13//24
f 53//25 14//25 54//25
f 53//25 13//25 14//25
f 14//26 55//26 54//26
f 15//26 55//26 14//26
f 15//27 56//27 55//27
f 16//27 56//27 15//27
f 5//28 46//28 56//28
f 16//28 5//28 56//28
usemtl griff2
f 40//14 41//14 42//14
f 39//14 40//14 42//14
f 43//14 39//14 42//14
f 44//14 39//14 43//14
f 33//14 39//14 44//14
f 33//14 34//14 39//14
f 34//14 35//14 39//14
f 35//14 36//14 39//14
f 36//14 38//14 39//14
f 36//14 37//14 38//14
f 21//17 34//17 33//17
f 22//17 21//17 33//17
f 23//18 34//18 21//18
f 23//18 35//18 34//18
f 24//19 35//19 23//19
f 24//19 36//19 35//19
f 37//20 24//20 25//20
f 36//20 24//20 37//20
f 38//21 25//21 26//21
f 37//21 25//21 38//21
f 38//22 26//22 39//22
f 39//22 26//22 27//22
f 40//23 27//23 28//23
f 39//23 27//23 40//23
f 41//24 28//24 29//24
f 40//24 28//24 41//24
f 42//25 29//25 30//25
f 41//25 29//25 42//25
f 31//26 42//26 30//26
f 31//26 43//26 42//26
f 32//27 43//27 31//27
f 32//27 44//27 43//27
f 22//28 44//28 32//28
f 22//28 33//28 44//28
usemtl hebel
f 47//1 4//1 45//1
f 45//1 4//1 3//1
f 2//1 4//1 47//1
f 46//1 45//1 3//1
f 56//1 46//1 3//1
f 55//1 56//1 3//1
f 1//1 55//1 3//1
f 1//1 54//1 55//1
f 1//1 53//1 54//1
f 1//1 52//1 53//1
f 1//1 2//1 52//1
f 2//1 51//1 52//1
f 2//1 50//1 51//1
f 2//1 49//1 50//1
f 2//1 48//1 49//1
f 48//1 2//1 47//1
f 53//1 52//1 54//1
f 52//1 51//1 54//1
f 51//1 55//1 54//1
f 51//1 56//1 55//1
f 51//1 46//1 56//1
f 45//1 46//1 51//1
f 47//1 45//1 51//1
f 48//1 47//1 51//1
f 50//1 48//1 51//1
f 49//1 48//1 50//1
f 18//29 1//29 17//29
f 1//29 18//29 2//29
f 20//30 2//30 18//30
f 20//30 4//30 2//30
f 1//31 19//31 17//31
f 1//31 3//31 19//31
f 102//32 4//32 103//32
f 20//32 106//32 107//32
f 108//32 105//32 19//32
f 101//32 104//32 3//32
f 108//32 19//32 3//32
f 107//32 108//32 3//32
f 4//32 20//32 103//32
f 103//32 20//32 107//32
f 103//32 107//32 104//32
f 104//32 107//32 3//32
f 20//14 23//14 21//14
f 20//14 21//14 19//14
f 20//14 18//14 23//14
f 21//14 22//14 19//14
f 22//14 32//14 19//14
f 32//14 31//14 19//14
f 19//14 31//14 17//14
f 18//14 24//14 23//14
f 24//14 18//14 25//14
f 25//14 18//14 26//14
f 26//14 18//14 17//14
f 27//14 26//14 17//14
f 28//14 27//14 17//14
f 29//14 28//14 17//14
f 30//14 29//14 17//14
f 31//14 30//14 17//14
f 24//14 25//14 26//14
f 24//14 26//14 27//14
f 23//14 24//14 27//14
f 21//14 23//14 27//14
f 22//14 21//14 27//14
f 22//14 27//14 32//14
f 32//14 27//14 31//14
f 31//14 27//14 30//14
f 28//14 29//14 30//14
f 27//14 28//14 30//14
f 114//30 102//30 103//30
f 113//30 114//30 103//30
f 101//31 116//31 104//31
f 116//31 115//31 104//31
f 106//30 122//30 107//30
f 122//30 121//30 107//30
f 108//33 123//33 105//33
f 123//34 124//34 105//34
