# Blender v2.63 (sub 0) OBJ File: ''
# www.blender.org
mtllib hebel2.mtl
o hebel2
v -0.069000 0.387915 0.059160
v -0.069000 0.387915 -0.059160
v -0.069000 0.267855 0.059160
v -0.069000 0.267855 -0.059160
v -0.278400 0.290458 -0.000000
v -0.278400 0.295423 -0.018531
v -0.278400 0.308989 -0.032097
v -0.278400 0.327520 -0.037062
v -0.278400 0.346051 -0.032097
v -0.278400 0.359616 -0.018531
v -0.278400 0.364582 -0.000000
v -0.278400 0.359616 0.018531
v -0.278400 0.346051 0.032097
v -0.278400 0.327520 0.037062
v -0.278400 0.308989 0.032097
v -0.278400 0.295423 0.018531
v 0.069000 0.387915 0.059160
v 0.069000 0.387915 -0.059160
v 0.069000 0.267855 0.059160
v 0.069000 0.267855 -0.059160
v 0.069000 0.295423 -0.018531
v 0.069000 0.290458 -0.000000
v 0.069000 0.308989 -0.032097
v 0.069000 0.327520 -0.037062
v 0.069000 0.346051 -0.032097
v 0.069000 0.359616 -0.018531
v 0.069000 0.364582 -0.000000
v 0.069000 0.359616 0.018531
v 0.069000 0.346051 0.032097
v 0.069000 0.327520 0.037062
v 0.069000 0.308989 0.032097
v 0.069000 0.295423 0.018531
v 0.278400 0.290458 -0.000000
v 0.278400 0.295423 -0.018531
v 0.278400 0.308989 -0.032097
v 0.278400 0.327520 -0.037062
v 0.278400 0.346051 -0.032097
v 0.278400 0.359616 -0.018531
v 0.278400 0.364582 -0.000000
v 0.278400 0.359616 0.018531
v 0.278400 0.346051 0.032097
v 0.278400 0.327520 0.037062
v 0.278400 0.308989 0.032097
v 0.278400 0.295423 0.018531
v -0.069000 0.295423 -0.018531
v -0.069000 0.290458 -0.000000
v -0.069000 0.308989 -0.032097
v -0.069000 0.327520 -0.037062
v -0.069000 0.346051 -0.032097
v -0.069000 0.359616 -0.018531
v -0.069000 0.364582 -0.000000
v -0.069000 0.359616 0.018531
v -0.069000 0.346051 0.032097
v -0.069000 0.327520 0.037062
v -0.069000 0.308989 0.032097
v -0.069000 0.295423 0.018531
v 0.034500 -0.045000 0.000000
v 0.034500 -0.041575 -0.017221
v 0.034500 -0.031820 -0.031820
v 0.034500 -0.017221 -0.041575
v 0.034500 -0.000000 -0.045000
v 0.034500 0.017221 -0.041575
v 0.034500 0.017221 0.041575
v 0.034500 0.000000 0.045000
v 0.034500 -0.017221 0.041575
v 0.034500 -0.031820 0.031820
v 0.034500 -0.041575 0.017221
v 0.069000 -0.045000 0.000000
v 0.069000 -0.041575 -0.017221
v 0.069000 -0.031820 -0.031820
v 0.069000 -0.017221 -0.041575
v 0.069000 -0.000000 -0.045000
v 0.069000 0.017221 -0.041575
v 0.069000 0.017221 0.041575
v 0.069000 0.000000 0.045000
v 0.069000 -0.017221 0.041575
v 0.069000 -0.031820 0.031820
v 0.069000 -0.041575 0.017221
v -0.034500 -0.045000 0.000000
v -0.034500 -0.041575 -0.017221
v -0.034500 -0.031820 -0.031820
v -0.034500 -0.017221 -0.041575
v -0.034500 -0.000000 -0.045000
v -0.034500 0.017221 -0.041575
v -0.034500 0.017221 0.041575
v -0.034500 0.000000 0.045000
v -0.034500 -0.017221 0.041575
v -0.034500 -0.031820 0.031820
v -0.034500 -0.041575 0.017221
v -0.069000 -0.045000 0.000000
v -0.069000 -0.041575 -0.017221
v -0.069000 -0.031820 -0.031820
v -0.069000 -0.017221 -0.041575
v -0.069000 -0.000000 -0.045000
v -0.069000 0.017221 -0.041575
v -0.069000 0.017221 0.041575
v -0.069000 0.000000 0.045000
v -0.069000 -0.017221 0.041575
v -0.069000 -0.031820 0.031820
v -0.069000 -0.041575 0.017221
v -0.069000 0.267855 0.026100
v -0.069000 0.267855 -0.026250
v -0.034500 0.267855 -0.026250
v -0.034500 0.267855 0.026100
v 0.069000 0.267855 0.026100
v 0.069000 0.267855 -0.026250
v 0.034500 0.267855 -0.026250
v 0.034500 0.267855 0.025950
v -0.034500 0.031820 -0.031820
v -0.034500 0.031820 0.031820
v -0.069000 0.031820 -0.031820
v -0.069000 0.031820 0.031820
v -0.034500 0.035541 -0.026250
v -0.069000 0.035541 -0.026250
v -0.034500 0.035642 0.026100
v -0.069000 0.035642 0.026100
v 0.034500 0.031820 -0.031820
v 0.034500 0.031820 0.031820
v 0.069000 0.031820 -0.031820
v 0.069000 0.031820 0.031820
v 0.034500 0.035541 -0.026250
v 0.069000 0.035541 -0.026250
v 0.034500 0.035742 0.025950
v 0.069000 0.035642 0.026100
vn -1.000000 0.000000 -0.000000
vn -0.000000 -0.965926 -0.258819
vn 0.000000 -0.707107 -0.707107
vn 0.000000 -0.258819 -0.965926
vn 0.000000 0.258818 -0.965926
vn 0.000000 0.707107 -0.707107
vn 0.000000 0.965926 -0.258819
vn -0.000000 0.965926 0.258819
vn 0.000000 0.707107 0.707107
vn 0.000000 0.258818 0.965926
vn 0.000000 -0.258819 0.965926
vn 0.000000 -0.707107 0.707107
vn 0.000000 -0.965926 0.258819
vn 1.000000 0.000000 0.000000
vn 0.000000 1.000000 0.000000
vn -0.000000 -0.000000 -1.000000
vn 0.000000 0.000000 1.000000
vn -0.000000 -1.000000 0.000000
vn -0.004348 0.000000 0.999990
vn -0.004348 0.000000 0.999991
vn 0.000000 -0.980785 -0.195090
vn 0.000000 -0.831470 -0.555570
vn 0.000000 -0.555570 -0.831470
vn 0.000000 -0.195090 -0.980785
vn 0.000000 0.195090 -0.980785
vn 0.000000 0.555570 -0.831470
vn 0.000000 0.555570 0.831470
vn 0.000000 0.195090 0.980785
vn 0.000000 -0.195090 0.980785
vn 0.000000 -0.555570 0.831470
vn 0.000000 -0.831470 0.555570
vn 0.000000 -0.980785 0.195090
vn 0.000000 0.831470 -0.555570
vn -0.000000 0.831470 0.555570
usemtl griff1
s off
f 9//1 8//1 10//1
f 10//1 8//1 11//1
f 8//1 7//1 11//1
f 7//1 6//1 11//1
f 6//1 5//1 11//1
f 11//1 5//1 16//1
f 11//1 16//1 15//1
f 11//1 15//1 14//1
f 12//1 11//1 14//1
f 13//1 12//1 14//1
f 45//2 46//2 5//2
f 6//2 45//2 5//2
f 6//3 47//3 45//3
f 7//3 47//3 6//3
f 7//4 48//4 47//4
f 8//4 48//4 7//4
f 48//5 9//5 49//5
f 48//5 8//5 9//5
f 49//6 10//6 50//6
f 49//6 9//6 10//6
f 50//7 11//7 51//7
f 50//7 10//7 11//7
f 51//8 11//8 12//8
f 51//8 12//8 52//8
f 52//9 13//9 53//9
f 52//9 12//9 13//9
f 53//10 14//10 54//10
f 53//10 13//10 14//10
f 14//11 55//11 54//11
f 15//11 55//11 14//11
f 15//12 56//12 55//12
f 16//12 56//12 15//12
f 5//13 46//13 56//13
f 16//13 5//13 56//13
usemtl griff2
f 40//14 41//14 42//14
f 39//14 40//14 42//14
f 43//14 39//14 42//14
f 44//14 39//14 43//14
f 33//14 39//14 44//14
f 33//14 34//14 39//14
f 34//14 35//14 39//14
f 35//14 36//14 39//14
f 36//14 38//14 39//14
f 36//14 37//14 38//14
f 21//2 34//2 33//2
f 22//2 21//2 33//2
f 23//3 34//3 21//3
f 23//3 35//3 34//3
f 24//4 35//4 23//4
f 24//4 36//4 35//4
f 37//5 24//5 25//5
f 36//5 24//5 37//5
f 38//6 25//6 26//6
f 37//6 25//6 38//6
f 38//7 26//7 39//7
f 39//7 26//7 27//7
f 40//8 27//8 28//8
f 39//8 27//8 40//8
f 41//9 28//9 29//9
f 40//9 28//9 41//9
f 42//10 29//10 30//10
f 41//10 29//10 42//10
f 31//11 42//11 30//11
f 31//11 43//11 42//11
f 32//12 43//12 31//12
f 32//12 44//12 43//12
f 22//13 44//13 32//13
f 22//13 33//13 44//13
usemtl hebel
f 47//1 4//1 45//1
f 45//1 4//1 3//1
f 2//1 4//1 47//1
f 46//1 45//1 3//1
f 56//1 46//1 3//1
f 55//1 56//1 3//1
f 1//1 55//1 3//1
f 1//1 54//1 55//1
f 1//1 53//1 54//1
f 1//1 52//1 53//1
f 1//1 2//1 52//1
f 2//1 51//1 52//1
f 2//1 50//1 51//1
f 2//1 49//1 50//1
f 2//1 48//1 49//1
f 48//1 2//1 47//1
f 53//1 52//1 54//1
f 52//1 51//1 54//1
f 51//1 55//1 54//1
f 51//1 56//1 55//1
f 51//1 46//1 56//1
f 45//1 46//1 51//1
f 47//1 45//1 51//1
f 48//1 47//1 51//1
f 50//1 48//1 51//1
f 49//1 48//1 50//1
f 18//15 1//15 17//15
f 1//15 18//15 2//15
f 20//16 2//16 18//16
f 20//16 4//16 2//16
f 1//17 19//17 17//17
f 1//17 3//17 19//17
f 102//18 4//18 103//18
f 20//18 106//18 107//18
f 108//18 105//18 19//18
f 101//18 104//18 3//18
f 108//18 19//18 3//18
f 107//18 108//18 3//18
f 4//18 20//18 103//18
f 103//18 20//18 107//18
f 103//18 107//18 104//18
f 104//18 107//18 3//18
f 20//14 23//14 21//14
f 20//14 21//14 19//14
f 20//14 18//14 23//14
f 21//14 22//14 19//14
f 22//14 32//14 19//14
f 32//14 31//14 19//14
f 19//14 31//14 17//14
f 18//14 24//14 23//14
f 24//14 18//14 25//14
f 25//14 18//14 26//14
f 26//14 18//14 17//14
f 27//14 26//14 17//14
f 28//14 27//14 17//14
f 29//14 28//14 17//14
f 30//14 29//14 17//14
f 31//14 30//14 17//14
f 24//14 25//14 26//14
f 24//14 26//14 27//14
f 23//14 24//14 27//14
f 21//14 23//14 27//14
f 22//14 21//14 27//14
f 22//14 27//14 32//14
f 32//14 27//14 31//14
f 31//14 27//14 30//14
f 28//14 29//14 30//14
f 27//14 28//14 30//14
f 114//16 102//16 103//16
f 113//16 114//16 103//16
f 101//17 116//17 104//17
f 116//17 115//17 104//17
f 106//16 122//16 107//16
f 122//16 121//16 107//16
f 108//19 123//19 105//19
f 123//20 124//20 105//20
f 117//1 62//1 118//1
f 118//1 62//1 63//1
f 62//1 61//1 63//1
f 61//1 60//1 63//1
f 63//1 60//1 64//1
f 60//1 59//1 64//1
f 59//1 65//1 64//1
f 59//1 66//1 65//1
f 59//1 58//1 66//1
f 58//1 57//1 67//1
f 58//1 67//1 66//1
f 69//21 68//21 57//21
f 58//21 69//21 57//21
f 70//22 69//22 58//22
f 59//22 70//22 58//22
f 71//23 70//23 59//23
f 60//23 71//23 59//23
f 72//24 71//24 60//24
f 61//24 72//24 60//24
f 73//25 72//25 62//25
f 72//25 61//25 62//25
f 119//26 73//26 117//26
f 73//26 62//26 117//26
f 74//27 120//27 63//27
f 120//27 118//27 63//27
f 75//28 74//28 64//28
f 74//28 63//28 64//28
f 76//29 75//29 64//29
f 65//29 76//29 64//29
f 77//30 76//30 65//30
f 66//30 77//30 65//30
f 78//31 77//31 66//31
f 67//31 78//31 66//31
f 68//32 78//32 67//32
f 57//32 68//32 67//32
f 119//14 120//14 74//14
f 73//14 119//14 74//14
f 73//14 74//14 75//14
f 76//14 73//14 75//14
f 72//14 73//14 76//14
f 77//14 72//14 76//14
f 71//14 72//14 77//14
f 70//14 71//14 77//14
f 78//14 70//14 77//14
f 68//14 69//14 78//14
f 69//14 70//14 78//14
f 109//14 110//14 85//14
f 84//14 109//14 85//14
f 84//14 85//14 86//14
f 87//14 84//14 86//14
f 83//14 84//14 87//14
f 88//14 83//14 87//14
f 82//14 83//14 88//14
f 81//14 82//14 88//14
f 89//14 81//14 88//14
f 79//14 80//14 89//14
f 80//14 81//14 89//14
f 90//21 91//21 79//21
f 91//21 80//21 79//21
f 91//22 92//22 80//22
f 92//22 81//22 80//22
f 92//23 93//23 81//23
f 93//23 82//23 81//23
f 93//24 94//24 82//24
f 94//24 83//24 82//24
f 94//25 95//25 84//25
f 83//25 94//25 84//25
f 95//26 111//26 109//26
f 84//26 95//26 109//26
f 112//27 96//27 85//27
f 110//27 112//27 85//27
f 96//28 97//28 86//28
f 85//28 96//28 86//28
f 97//29 98//29 86//29
f 98//29 87//29 86//29
f 98//30 99//30 87//30
f 99//30 88//30 87//30
f 99//31 100//31 88//31
f 100//31 89//31 88//31
f 100//32 90//32 89//32
f 90//32 79//32 89//32
f 111//1 95//1 112//1
f 112//1 95//1 96//1
f 95//1 94//1 96//1
f 94//1 93//1 96//1
f 96//1 93//1 97//1
f 93//1 92//1 97//1
f 92//1 98//1 97//1
f 92//1 99//1 98//1
f 92//1 91//1 99//1
f 91//1 90//1 100//1
f 91//1 100//1 99//1
f 119//33 117//33 121//33
f 122//33 119//33 121//33
f 124//34 123//34 118//34
f 120//34 124//34 118//34
f 109//33 111//33 113//33
f 111//33 114//33 113//33
f 116//34 112//34 110//34
f 115//34 116//34 110//34
f 124//14 106//14 105//14
f 122//14 106//14 124//14
f 107//1 121//1 123//1
f 107//1 123//1 108//1
f 115//14 103//14 104//14
f 113//14 103//14 115//14
f 102//1 114//1 116//1
f 102//1 116//1 101//1
f 119//14 122//14 120//14
f 122//14 124//14 120//14
f 121//1 117//1 118//1
f 123//1 121//1 118//1
f 109//14 113//14 110//14
f 113//14 115//14 110//14
f 114//1 111//1 112//1
f 116//1 114//1 112//1
