# Blender v2.63 (sub 0) OBJ File: ''
# www.blender.org
mtllib button1.mtl
o button1
v 0.000000 0.000000 0.170000
v 0.000000 0.032528 0.164262
v 0.016264 0.028170 0.164262
v 0.028170 0.016264 0.164262
v 0.032528 0.000000 0.164262
v 0.028170 -0.016264 0.164262
v 0.016264 -0.028170 0.164262
v 0.000000 -0.032528 0.164262
v -0.016264 -0.028170 0.164262
v -0.028170 -0.016264 0.164262
v -0.032528 0.000000 0.164262
v -0.028170 0.016264 0.164262
v -0.016264 0.028170 0.164262
v 0.000000 0.060104 0.147922
v 0.030052 0.052052 0.147922
v 0.052052 0.030052 0.147922
v 0.060104 0.000000 0.147922
v 0.052052 -0.030052 0.147922
v 0.030052 -0.052052 0.147922
v 0.000000 -0.060104 0.147922
v -0.030052 -0.052052 0.147922
v -0.052052 -0.030052 0.147922
v -0.060104 0.000000 0.147922
v -0.052052 0.030052 0.147922
v -0.030052 0.052052 0.147922
v 0.000000 0.078530 0.123468
v 0.039265 0.068009 0.123468
v 0.068009 0.039265 0.123468
v 0.078530 0.000000 0.123468
v 0.068009 -0.039265 0.123468
v 0.039265 -0.068009 0.123468
v 0.000000 -0.078530 0.123468
v -0.039265 -0.068009 0.123468
v -0.068009 -0.039265 0.123468
v -0.078530 0.000000 0.123468
v -0.068009 0.039265 0.123468
v -0.039265 0.068009 0.123468
v 0.000000 0.085000 0.094600
v 0.042500 0.073612 0.094600
v 0.073612 0.042500 0.094600
v 0.085000 0.000000 0.094600
v 0.073612 -0.042500 0.094600
v 0.042500 -0.073612 0.094600
v 0.000000 -0.085000 0.094600
v -0.042500 -0.073612 0.094600
v -0.073612 -0.042500 0.094600
v -0.085000 0.000000 0.094600
v -0.073612 0.042500 0.094600
v -0.042500 0.073612 0.094600
v 0.000000 0.035000 0.094600
v 0.017500 0.030311 0.094600
v 0.030311 0.017500 0.094600
v 0.035000 0.000000 0.094600
v 0.030311 -0.017500 0.094600
v 0.017500 -0.030311 0.094600
v 0.000000 -0.035000 0.094600
v -0.017500 -0.030311 0.094600
v -0.030311 -0.017500 0.094600
v -0.035000 0.000000 0.094600
v -0.030311 0.017500 0.094600
v -0.017500 0.030311 0.094600
v 0.000000 0.035000 -0.005000
v 0.017500 0.030311 -0.005000
v 0.030311 0.017500 -0.005000
v 0.035000 0.000000 -0.005000
v 0.030311 -0.017500 -0.005000
v 0.017500 -0.030311 -0.005000
v 0.000000 -0.035000 -0.005000
v -0.017500 -0.030311 -0.005000
v -0.030311 -0.017500 -0.005000
v -0.035000 0.000000 -0.005000
v -0.030311 0.017500 -0.005000
v -0.017500 0.030311 -0.005000
v 0.000000 0.035000 0.094600
v 0.017500 0.030311 0.094600
v 0.030311 0.017500 0.094600
v 0.035000 0.000000 0.094600
v 0.030311 -0.017500 0.094600
v 0.017500 -0.030311 0.094600
v 0.000000 -0.035000 0.094600
v -0.017500 -0.030311 0.094600
v -0.030311 -0.017500 0.094600
v -0.035000 0.000000 0.094600
v -0.030311 0.017500 0.094600
v -0.017500 0.030311 0.094600
v 0.000000 0.085000 0.094600
v 0.042500 0.073612 0.094600
v 0.073612 0.042500 0.094600
v 0.085000 0.000000 0.094600
v 0.073612 -0.042500 0.094600
v 0.042500 -0.073612 0.094600
v 0.000000 -0.085000 0.094600
v -0.042500 -0.073612 0.094600
v -0.073612 -0.042500 0.094600
v -0.085000 0.000000 0.094600
v -0.073612 0.042500 0.094600
v -0.042500 0.073612 0.094600
vn 0.046496 0.173524 0.983731
vn 0.127029 0.127029 0.983731
vn 0.173524 0.046496 0.983731
vn 0.173524 -0.046496 0.983731
vn 0.127029 -0.127029 0.983731
vn 0.046496 -0.173524 0.983731
vn -0.046496 -0.173524 0.983731
vn -0.127029 -0.127029 0.983731
vn -0.173524 -0.046496 0.983731
vn -0.173524 0.046496 0.983731
vn -0.127029 0.127029 0.983731
vn -0.046496 0.173524 0.983731
vn 0.135335 0.505077 0.852398
vn 0.369742 0.369742 0.852398
vn 0.505077 0.135335 0.852398
vn 0.505077 -0.135335 0.852398
vn 0.369742 -0.369742 0.852398
vn 0.135335 -0.505077 0.852398
vn -0.135335 -0.505077 0.852398
vn -0.369742 -0.369742 0.852398
vn -0.505077 -0.135335 0.852398
vn -0.505077 0.135335 0.852398
vn -0.369742 0.369742 0.852398
vn -0.135335 0.505077 0.852398
vn 0.209263 0.780982 0.588452
vn 0.209264 0.780982 0.588452
vn 0.571719 0.571719 0.588452
vn 0.780982 0.209263 0.588452
vn 0.780982 0.209264 0.588452
vn 0.780982 -0.209264 0.588452
vn 0.780982 -0.209263 0.588452
vn 0.571719 -0.571719 0.588452
vn 0.209263 -0.780982 0.588452
vn 0.209264 -0.780982 0.588452
vn -0.209264 -0.780982 0.588452
vn -0.209263 -0.780982 0.588452
vn -0.571719 -0.571719 0.588452
vn -0.780982 -0.209264 0.588452
vn -0.780982 -0.209263 0.588452
vn -0.780982 0.209263 0.588452
vn -0.780982 0.209264 0.588452
vn -0.571719 0.571719 0.588452
vn -0.209264 0.780982 0.588452
vn -0.209263 0.780982 0.588452
vn 0.252959 0.944056 0.211588
vn 0.691097 0.691097 0.211588
vn 0.944056 0.252959 0.211588
vn 0.944056 -0.252959 0.211588
vn 0.691097 -0.691097 0.211588
vn 0.252959 -0.944056 0.211588
vn -0.252959 -0.944056 0.211588
vn -0.691097 -0.691097 0.211588
vn -0.944056 -0.252959 0.211588
vn -0.944056 0.252959 0.211588
vn -0.691097 0.691097 0.211588
vn -0.252959 0.944056 0.211588
vn 0.258819 0.965926 0.000000
vn 0.707107 0.707107 0.000000
vn 0.965926 0.258819 0.000000
vn 0.965926 -0.258819 0.000000
vn 0.707107 -0.707107 0.000000
vn 0.258819 -0.965926 0.000000
vn -0.258819 -0.965926 -0.000000
vn -0.707107 -0.707107 -0.000000
vn -0.965926 -0.258819 -0.000000
vn -0.965926 0.258819 0.000000
vn -0.707107 0.707107 0.000000
vn -0.258819 0.965926 0.000000
vn -0.000000 0.000000 -1.000000
vn -0.000002 -0.000009 -1.000000
vn -0.000007 -0.000007 -1.000000
vn -0.000009 -0.000002 -1.000000
vn -0.000009 0.000002 -1.000000
vn -0.000007 0.000007 -1.000000
vn -0.000002 0.000009 -1.000000
vn 0.000002 0.000009 -1.000000
vn 0.000007 0.000007 -1.000000
vn 0.000009 0.000002 -1.000000
vn 0.000009 -0.000002 -1.000000
vn 0.000007 -0.000007 -1.000000
vn 0.000002 -0.000009 -1.000000
usemtl button
s off
f 1//1 3//1 2//1
f 1//2 4//2 3//2
f 1//3 5//3 4//3
f 5//4 1//4 6//4
f 6//5 1//5 7//5
f 7//6 1//6 8//6
f 1//7 9//7 8//7
f 1//8 10//8 9//8
f 1//9 11//9 10//9
f 1//10 12//10 11//10
f 1//11 13//11 12//11
f 1//12 2//12 13//12
f 14//13 2//13 3//13
f 15//13 14//13 3//13
f 16//14 3//14 4//14
f 16//14 15//14 3//14
f 17//15 4//15 5//15
f 16//15 4//15 17//15
f 17//16 6//16 18//16
f 17//16 5//16 6//16
f 18//17 7//17 19//17
f 6//17 7//17 18//17
f 7//18 8//18 20//18
f 19//18 7//18 20//18
f 9//19 21//19 20//19
f 8//19 9//19 20//19
f 9//20 22//20 21//20
f 9//20 10//20 22//20
f 10//21 23//21 22//21
f 11//21 23//21 10//21
f 12//22 23//22 11//22
f 12//22 24//22 23//22
f 13//23 24//23 12//23
f 25//23 24//23 13//23
f 14//24 25//24 13//24
f 2//24 14//24 13//24
f 26//25 14//25 15//25
f 27//26 26//26 15//26
f 28//27 15//27 16//27
f 27//27 15//27 28//27
f 29//28 16//28 17//28
f 28//29 16//29 29//29
f 29//30 18//30 30//30
f 29//31 17//31 18//31
f 30//32 19//32 31//32
f 30//32 18//32 19//32
f 19//33 20//33 32//33
f 31//34 19//34 32//34
f 21//35 33//35 32//35
f 20//36 21//36 32//36
f 21//37 34//37 33//37
f 22//37 34//37 21//37
f 22//38 35//38 34//38
f 23//39 35//39 22//39
f 24//40 35//40 23//40
f 24//41 36//41 35//41
f 25//42 36//42 24//42
f 25//42 37//42 36//42
f 26//43 37//43 25//43
f 14//44 26//44 25//44
f 38//45 26//45 27//45
f 39//45 38//45 27//45
f 39//46 27//46 28//46
f 40//46 39//46 28//46
f 41//47 28//47 29//47
f 40//47 28//47 41//47
f 41//48 30//48 42//48
f 41//48 29//48 30//48
f 30//49 31//49 43//49
f 42//49 30//49 43//49
f 31//50 32//50 44//50
f 43//50 31//50 44//50
f 33//51 45//51 44//51
f 32//51 33//51 44//51
f 34//52 46//52 45//52
f 33//52 34//52 45//52
f 34//53 47//53 46//53
f 35//53 47//53 34//53
f 36//54 47//54 35//54
f 36//54 48//54 47//54
f 49//55 48//55 36//55
f 37//55 49//55 36//55
f 38//56 49//56 37//56
f 26//56 38//56 37//56
usemtl stiel
f 63//57 50//57 51//57
f 62//57 50//57 63//57
f 64//58 51//58 52//58
f 63//58 51//58 64//58
f 65//59 52//59 53//59
f 64//59 52//59 65//59
f 66//60 53//60 54//60
f 65//60 53//60 66//60
f 67//61 54//61 55//61
f 66//61 54//61 67//61
f 68//62 55//62 56//62
f 67//62 55//62 68//62
f 57//63 68//63 56//63
f 57//63 69//63 68//63
f 58//64 69//64 57//64
f 58//64 70//64 69//64
f 59//65 70//65 58//65
f 59//65 71//65 70//65
f 60//66 71//66 59//66
f 60//66 72//66 71//66
f 61//67 72//67 60//67
f 61//67 73//67 72//67
f 50//68 73//68 61//68
f 50//68 62//68 73//68
f 73//69 62//69 63//69
f 73//69 63//69 72//69
f 72//69 63//69 71//69
f 71//69 63//69 70//69
f 70//69 63//69 69//69
f 69//69 63//69 68//69
f 63//69 67//69 68//69
f 63//69 66//69 67//69
f 64//69 65//69 66//69
f 63//69 64//69 66//69
f 86//70 87//70 74//70
f 74//70 87//70 75//70
f 87//71 88//71 75//71
f 75//71 88//71 76//71
f 76//72 88//72 77//72
f 88//72 89//72 77//72
f 77//73 89//73 90//73
f 78//73 77//73 90//73
f 78//74 90//74 91//74
f 79//74 78//74 91//74
f 80//75 79//75 91//75
f 80//75 91//75 92//75
f 93//76 80//76 92//76
f 81//76 80//76 93//76
f 94//77 81//77 93//77
f 82//77 81//77 94//77
f 83//78 82//78 94//78
f 95//78 83//78 94//78
f 95//79 96//79 83//79
f 96//79 84//79 83//79
f 96//80 97//80 84//80
f 97//80 85//80 84//80
f 97//81 74//81 85//81
f 97//81 86//81 74//81
